<svg height="608pt" viewBox="0 0 1084 608" width="1084pt" xmlns="http://www.w3.org/2000/svg" xmlns:xlink="http://www.w3.org/1999/xlink"><defs><path id="a" d="m0 0h526.25c-.22 2.65-.51 5.29-.79 7.93 6.73-4.3-.02 3.86-.55 5.63-2 .88-10.84 2.41-3.88 2.41 5.76-.47-1.35 4.31 4.96 3.5-2.89 9.02-12.25 8.32-9.58 18.95 1.48 7.49-2.77-3.67-5.35-2.37.55 2.47 2.49 4.67 3.75 6.87-5.7-1.6-9.41-.71-8.89 6.1-1.14 2.4 8.73 9.93 2.59 7.28-6.95-3.36-2.24 9.56-10.46 8.09 1.98 4.5 9.31-.36 9.87 4.4-2.92-.02-5.81-.14-8.72.25 3.96 3.65 5.49 4.14 1.46 8.89 1.93 7.62-7.96 6.86-4.06 13.39.05 10.73-17.5 7.87-23.02 10.24-26.98 6.3-53.55 3.97-81.78 11.14-7.97 1.54-21.08 6.2-22.8 15.31-1.99 9.55 8.92 10.65 13.35 17.63 3.36 6.49 10.38 1.18 10.84 9.93 7.9-2 3.19 5.95 9.7 8.54 6.12 3 6.12 10.54 11.49 13.43 10.77.89 21.3 6.38 30.75 11.2 5.3-1.05 12.58 3.52 16.69 6.47 8.46 3.32 24.2-.22 27.88 11.06 8.3 1.26 19.13 2.41 19.83 13.13.21 6.93 4.35 7.93 8.35 12.52-10.91-3.76-13.76 5.68-10.72 13.83 5.35 1.79.84 7.64 4.52 11.55 2.04 3.13 4.34.55 5.24-1.96 5.39-2.16-3.25 5.64 1.08 4.68 3.63-.29 8 4.28 10.68.64 6.97.57 17.47-1.83 25.87-2.1-1.68 6.24 7.91 3.1 1.51 6.47 4.56.63 5.58-3.16 10.29-2.63-1.32-5.74 8.16-8.1 7.02-14.9-2.88-4.9 4.5-5.11 4.49-10.33-.56-7.93 7.01-8.66 12.68-11.67 5.24-4.07 11.33-5.97 17.33-8.49 2.79-4.85 8.14-5.02 11.49-9.67 5-.09 5.24 1.24 8.72-3.1 15.5-4.48 27.78-4.81 43.06-11.08 3.47-6.08 10.09-7.31 13.76-13.31 2.66-5.87 8.7-4.84 7.33-12.44 10.2 5.51 8.19-10.45 9.68-16.02 4.3-5.12 10.23-10.97 6.82-18.26-5.51-11.66-21.34-13.81-31.91-18.87-7.35-1.08-19.3-2.92-24.96-7.64-2.72-.18-6.45 1.43-4.69-2.99-2.29-.56-7.36-8.55-5.78-12.18 4.01 4.45 7.43-8.18 1.62-5.93.91-3.31 2.71-2.96-.33-5.8 4.7-9.04-2.2-10.5.59-18.04-9.11-6.62 8.72-14.49-1.12-17.88-7.96-2.18-.78-14.39-4.87-19.08-3.74-2.14 2.47-.7 3.76-1.24-.45-3.21-4.11-3.2-1.79-6.7-.27-1.48-4.3-1.3-4.86-3.9 3.15 1.48 2.24-9.63 3.14-12.88h446.47v336.16c-8.67-6.42-24.57-8.2-30.89-15.06-6.5 1.17-4.48 9.07-7.64 13.37-6.25 13.12-17.15 20.49-30.36 25.65-9.92 6.35-20.09 11.49-30.96 16.06-7.73 3.21-19.55 12.83-27.82 9.59-.63 2.63-3.65 2.37-5.16.77 10.72-4.6 20.67-7.21 31.54-12.72 1.08-1.16 6.46.02 4.08-2.18 9-6.87 29.07-13.26 35.59-23.19 1.03-8.69 4.1-13.21 9.14-19.99 5.4-12.82-.92-24.57-10.44-32.4-4.5 1.16 1.44 4.29 1.2 7.87 4.34 4.27-4.29-.12-4.17 4.1-4.54-8.61-13.02-9.05-21.15-6.08-7.19 3.19 3.72 7.5 7.05 6.2 6.13 1.02 8.54 5.31 15.96 3.93 4.84 3.5 12.23 9.15 5.11 15.03-7.88 1.88-4.82 8-12.44 5.35-3.13-7.55-9.2-5.01-15.34-8.72-5.12-2.78-13.65-.01-17.14-5.28 6.39-1.71 8.04-5.91 15.02-2.73 7.18-1.27-.52-5.26-3.99-4.04-6.29-4.73-15-10.14-23.24-9.58 1.83 2.97 5.66.59 6.97 4.58-5.5-.84-1.32 1.01-.05 3.36-6.47-1.92-12.74-3.46-19.39-4.55-5.12-3.41-1.41-7.66 1-11.32-3.84-2.16-7.56-3.79-12.03-4.03-1.67-5.3-4.65-3.47-8.39-6.11-2.41-2.11-6.56-6.51-8.85-3.1 7.77 5.94 21.31 10.53 18.82 23.09 1.76 7.69 4.21 11.91-3.54 17.39-.07 8.15-7.99 10.24-14.28 12.7 1.4-7.82 10.78-10.16 10.02-20.15 2.12-9.38-4.31-19.28-11.44-24.83-8.13-3.1-1.87 7.5-1.23 11.27 3.85 9.52.73 19.87-8.65 24.37-6.25-.13-2.99 5.42-9.69 3.63-5.46-1.81 1.88-1.12 3.66-1.55-2.69-1.05-10.05-8.08-4.34-9.42 5.52-3.84-9.75-10.09-3.12-14.11 2.52-4.55-6.56-1.98-6.84-7.04-1.13-9.99-14.99-6.24-21.64-9.21-3.94-6.19-10.93-1.85-16.39-7.66-7.69-7.59-12.63-14.84-24.92-11.13-6.04-.9-10.82 1.85-16.69 1.12 5.04 3.26.88 4.01-2.22 1.88-2.18 5.94-2.97 9.38-6.13 1.19-5.47 5.66-11.39-1.85-15.43 4.57-.06.95-.11 1.91-.15 2.87l-.74.82c-8.51 2.67-15.54 4.79-24.57 2.55-3.71-3.61-.38-11.24-8.39-9-4.9 9.35 2.84 23.94-6.13 31.85-4.8 3.81 1.95 17.15-5.84 11.52-5.08-3.37-6.37-12.38-5.84-17.91 9.98 1.87 3.13-10.19 3.17-15.11.46-7.01-3.88-5.09-8.43-3.86-2.32-6.49.05-11.65-5.98-17.05-2.78-3.25-9.13-1.92-12.05-4.93-2.2-2.2-1.27-7.72-4.54-8.51-14.76.58-32.64 3.12-45.62 10.75-5.18 2.94-9.88 7.33-15.17 9.82-5.47-.43-9.74-2.54-14.49 1.53-4.74 3.97-11.51-1.6-14.23 5.73.23 8.19-1.82 15.76-.26 23.86-.47 8.99-5.87 23.63 3.35 29.76 4.15 2.87 7.37 6.32 12.33 7.82-.25 6.14 4.87 15.19 1.2 20.24-6.02 9.47-19.01-3.36-27.62-.64-5.15 3.4-2.91 7.99.64 11.58-2.9.37-5.79.79-8.69 1.22-10.08-.67-14.39-6.07-25.31-4.75-1.96-3.56 4.05-7.76 5.84-10.55 6.14-7.97 15.38-18.03 15.54-28.35 4.21-1.5-.93 8.36 4.6 6.61-1.9-5.02-1.86-11.56 5.41-7.32-.5-4.5-5.98-4.48-5.22-9.42 3.09.13 10.6 7.99 11.95 2.9-4.28-4.98-5.57-13.72-13.83-11.96.12 2.61.7 5.14.81 7.75-3.94.73-5.23-.45-7.72-3.16-3.92-5.64-6.13-10.36-14.31-10.59-11.79-4.96-23.83-3.13-35.24 1.91-8.25 2.87-15.23 7.87-23.02 11.59-4.2 1.75-3.24-3.64-4.26-6.03-1.25-6.43-11.32-6.18-13.61-11.35-5.2-5.81-10.97-5.75-17.91-6.11-3.94-1.89-4.72-1.16-4.48 3.09-.13 1.58-5.11-.03-6.05 1.89-5.72 3.89-15.97 4.02-22.48 7.09-4.47 6.86-19.87-1.43-25.49-2.92-3.02 2.55 1.36 7.81-2.5 11.31-3.34-4.74-10.93-6.85-15.81-3.44-10.03-1.3-19.75-8.07-29.22-11.48-5.89 2.71-4.82-4.52-8.08-7.49-8.7-4.4-5.28-11.11-9.86-18.01-1.46-3-3.92-6.59-3.84-10 2.31-3.6 8.66-3.33 10.8-6.78-8.13-5.78-20.86-6.53-26.03-15.13-4.85.88-2.62 4-4.89 6.68-6.76 2.91-14.18 7.35-21.54 5.27 1.52 6.38-7.5 6.58-11.49 8.63-6.93.62-15.3 5.63-21.68 2.63.13 8.58-13.14 2.87-18.27 3.66 6.39 3.64 20.09 2.81 17.93 13.71-4.05 5.26-4.09 10.9-7.77 16.26.61 3.73 5.14 7.36 7.35 10.46.93 2.59 7.24-.06 4.07 3.16 4.83 1.32 9.37 3.66 13.67 6.18 2.33 2.96-.27 7.73 4.47 9.47 6.88 2.01 15.2 4 22.35 2.74 11.27 3.57 17.16 11.58 20.05 22.89 1.61 5.84 10.07 5.89 8.83 11.77-4.56 2.36-2.36 6.29-2.14 10.29-.25 9.46 5.85 19.62 13.85 24.34 3.98 8.1 12.17 6.16 16.66 13.87.31 3.63.86 4.69 3.32 7.45-5.62.44-9.09 5.25-14.33 5.94-3.38-.66-6.35-3.58-9.86-4.32-.69 2.85-1.19 4.79-3.46 6.82-7.83 1.37-19.83-4.15-26.92-7.06-2.35.32-12.21 2.14-8.9-2.92 2.76-4.39-5.15.17-3.51-4.41 5.23-2.88 7.19-4.2 6.35-10.72-4.15 1.39-8.07 8.65-12.7 4.92 1.66-2.63 3.35-4.67 3.21-7.99-.6-5.31 6.28-3.33 4.36-9.59-4.27-.67-7.8-1.48-11.64-3.53-10.91-3.64-24.72 4.06-35.34-.54-1.75-.46-3.73-.27-5.53-.23-5.15-.29-6.66-1.69-9.9-5.49-20.92-3.51-36.46 8.4-56.23 7.47.01 1.71 4.78.15 4.65 1.86-4.57.05-9.08.13-13.64.46-3.27-6.59-.52-12.84-10.79-11.61 3.32-5.08-9.79-9.1-12.17-4.95 1.39-7.01-3.82-.61-2.94-8.24-18.38.6-36.85 3.44-55.15 3.19-1.26-5.34 5.73-10.27 7.55-15 3.02-8.47 6.18-11.02 15.29-11.41 10.31.18 19.73-1.9 29.87-2.48 1.6.01 8.83-2.47 3.19-2.84-12.61 1.2-17.32-1.58-27.87-1.25.13-3.7-4.98-5.94-1.63-.83-8.61 1.18-6.94-3.59-13.15-7.77-1.29 7.19-6.6 13.49-14.38 12.96-13.26 1.71-34.86 6.69-47.92 5.79-6.91-5.25 2.31-.4.82-5.9-7.42 2.08-14.89 12.69-15.66 20.12-1.08 5.49.36 18.13 8.6 15.55 3.99 1.01 4.98 5.84 9.15 1.28 11.89-3.87 21.94-3.23 33.97-.68-1.66 4.47-5.06 8.23-7.32 12.45-6.48-.14-16.57-8-23.58-4.52 10.63 5.06 20.98 10.29 32.78 11.89 8.33.1 16.03 4.46 24.69 1.7-2.05 2.89 1.56 2.14 2.38 4.84-2.52.79-4.61-.72-2.26 2.49-4.91-.11-7.58-3.83-12.33-1.83-21.26.11-35.07-4.18-53.4-14.22-8.11-.15-8.94-1.88-14.51-5.89 3.54-4.43-5.86-4.11-1.84-8.24-11.93.48-.05-8.36-7.28-13.55-4.88 6.36-8.5.84-11.88 9.11-1.72 4.03-1.22-3.15-3.41-.66-5.22 3.99-20.11 6.93-21.94 12.63 14.21.97 27.27 4.36 41.59 1.01 4.37-1.39.44 4.62 4.6 4.77 3.9-.05 7.64 3.3 2.58 5.1-10.35-1.46-20.21-1.51-30.48-2.82-1.9-.01-10.83 3.89-6.7-.6-2.57-.07-5.15 0-7.72.24 4.78 4.81 9.08 2.94 14.89 4 12.2 3.41 23.35 4.05 34.69 10.35 5.71 4.51 13.28 7.7 12.94 16.22-8.79 13.14-21.32 15.73-36.16 14.75-3.42-1.41-9.81 2.55-12.3-1.23 6.89-1.8 13.08.49 18.25-4.42-4.54-4.23-18.88 1.82-22.18-4-3.69-10.73 9.35-7.17 14.87-5.84 4.93-4.93 5.57 1.59 7.89-4.84-12.34-5.36-25.28.74-31.85 11.42 2.67 5.69-2.88-.12.63 6.21-2.55 2.38-5.74 3.22-9.59 1.93zm399.41 264.42c-5.1-1.25-21.17-8.61-24.09-3.62 7.78 6.69 22.51 9.72 32.62 11.51 2.62-.01 5.95 1.89 6.15-2.16-4.32-3.57-9.29-4.81-14.68-5.73zm-56.31 94.34c2.71-4 1.22-6.94-.21-10.77-9.95-.42-15.56-5.59-26.08-2.19-7.33 4.65-16.54-.39-22.92 4.1 9.6 8.56 7.25 20.53 15.44 29.75 2.89 6.66 12.53 4.15 18.34 3.99 5.86-1.48 5.38-9.94 8.43-14.5 1.51-4.38 7.9-5.76 7-10.38z"/><path id="b" d="m526.25 0h27.97c-5.17 4.09-5.97 12.5-10.13 17.1-4.23 1.84 1.13 6.3-3.84 7.6-6.83 2.52-.9 7.77-7.11 10.32-.44 3.76-2.03 11.71-5.35 13.73 3.03 5.08-6.71 7.79-3.19 12.48 1.8 3.94-3.27-2.44-2.3 1.94-2.2 9.07-8.88 23.02-8.09 32.36-6.21 7.01-13.07 7.42-22.36 8.84-4.23-.86-5.45 6.81-3.29 7.88 6.03-4.78-3.81 9.12 2.27 5.57 4.79-2.7 2.5 3.44 7.19 3.16 4-.82-2.18 6.39-4.02 3.43-1.92 9.05-8.65 11.58-5.24 23.78 1.85 8.44 5.91 16.25 6.84 24.79-1.59-.17-3.14-.48-4.69-.82-8.63-7.28-22.58-7.22-32.79-12.49-17.23-4.97-35.29-9.9-52.94-13.04-2.26.03-6.77-2.69-8.06-.1 7.51 2.79 15.15 7.22 22.1 11.18.14 3.14 6.28 16.98 9.69 9.54 5.24 3.81 11.27 4.15 12.96 11.37 4.39 2.64 12.08 1.32 15.44 6.31 3.21-.85 4.42 6.77 7.05 4.39 3.81-3.47 6.5 4.97 8.62-1.37 2.38 3.16 1.47 4.36 3.72.27-.4 6.01 8.29 4.22 11.94 7.17 7.82 7.15 17.92 6.23 23.97 15.97 5.9 3.35 12.98 12.47 20.02 9.11 10.97-.59 20.76 3.98 31.99 4.02 10.78 3.76 17.04-.59 25.33-6.59 7.03-2.37 13.8-3.54 20.37-7.58 2.39-3.59 3.36-8.27 5.32-12.18-5.69 2.99-2.37-5.05 1.09-4.62-.38-2.9-5.22-1.09.23-3.47 1.97 5 9.2 5.61 8.54-.61 3.17-3.21 8.01-1.33 7.07-7.14 3.71-6.22 2.59 3.36 8.21 1.99 5.01-.69 2.81 4.93 8.28 5.29 3.63-3.36 4.46-4.96 9.85-4.24 1.06 6.76 8.05-2.29 7.07-6.47-2.45-4.96 5.04-5.11 7.99-6.91 5.47-.51.33-6.89 1.95-9.88 3.44-1.25 3.91-4.17 7.8-4.4 4.38-9.76 10.57-3.84 18.04-13.57-8.79-2.98-8.65 4.62-16.87 5.8-6.97 2.02-14.04 3.45-20.92 5.81-5.74-1.71-10.53-7.82-16.97-8.69-4.09-.33-5.49-2.36-7.44-5.62-2.9 3.9-4.94 3.54.51 6.15-6.85 1.24-9.01-.99-15.38-1.26-2.89-5.33 8.75-2.5 8.91-7.7 3.1-5.95-.19 1.15 4.85-1.79 4.83-1.32.01-6.89 7.2-7.55-1.98 4.96 7.63 2.16 10.17 2.4 4.78-2.6 11.31 4.65 11.09-2.84-.44-4.28 7.44 5.98 9.15 2.24 1.96-3.16-1.98-5.42-.23-9.54-3.35-.77-10.49 3.02-8.05-3.09-2.82 1.19-2.14 1.35-3.93-1.24-5.13-1.8-12.14-4.14-16.27-.91-.75-6.01-9.47-5.61-14.81-7.85-3.26-2.69-7.41-5.72-3.26-9.75-1.36-6.06 1.91-16.95-2.41-21.65 3.9-1.53.79-4.51 1.22-7.66 1.55-9-3.16-17.65-1.15-27.99-2.06-13.07 3-27.74.77-41.38h9.59c-.9 3.25.01 14.36-3.14 12.88.56 2.6 4.59 2.42 4.86 3.9-2.32 3.5 1.34 3.49 1.79 6.7-1.29.54-7.5-.9-3.76 1.24 4.09 4.69-3.09 16.9 4.87 19.08 9.84 3.39-7.99 11.26 1.12 17.88-2.79 7.54 4.11 9-.59 18.04 3.04 2.84 1.24 2.49.33 5.8 5.81-2.25 2.39 10.38-1.62 5.93-1.58 3.63 3.49 11.62 5.78 12.18-1.76 4.42 1.97 2.81 4.69 2.99 5.66 4.72 17.61 6.56 24.96 7.64 10.57 5.06 26.4 7.21 31.91 18.87 3.41 7.29-2.52 13.14-6.82 18.26-1.49 5.57.52 21.53-9.68 16.02 1.37 7.6-4.67 6.57-7.33 12.44-3.67 6-10.29 7.23-13.76 13.31-15.28 6.27-27.56 6.6-43.06 11.08-3.48 4.34-3.72 3.01-8.72 3.1-3.35 4.65-8.7 4.82-11.49 9.67-6 2.52-12.09 4.42-17.33 8.49-5.67 3.01-13.24 3.74-12.68 11.67.01 5.22-7.37 5.43-4.49 10.33 1.14 6.8-8.34 9.16-7.02 14.9-4.71-.53-5.73 3.26-10.29 2.63 6.4-3.37-3.19-.23-1.51-6.47-8.4.27-18.9 2.67-25.87 2.1-2.68 3.64-7.05-.93-10.68-.64-4.33.96 4.31-6.84-1.08-4.68-.9 2.51-3.2 5.09-5.24 1.96-3.68-3.91.83-9.76-4.52-11.55-3.04-8.15-.19-17.59 10.72-13.83-4-4.59-8.14-5.59-8.35-12.52-.7-10.72-11.53-11.87-19.83-13.13-3.68-11.28-19.42-7.74-27.88-11.06-4.11-2.95-11.39-7.52-16.69-6.47-9.45-4.82-19.98-10.31-30.75-11.2-5.37-2.89-5.37-10.43-11.49-13.43-6.51-2.59-1.8-10.54-9.7-8.54-.46-8.75-7.48-3.44-10.84-9.93-4.43-6.98-15.34-8.08-13.35-17.63 1.72-9.11 14.83-13.77 22.8-15.31 28.23-7.17 54.8-4.84 81.78-11.14 5.52-2.37 23.07.49 23.02-10.24-3.9-6.53 5.99-5.77 4.06-13.39 4.03-4.75 2.5-5.24-1.46-8.89 2.91-.39 5.8-.27 8.72-.25-.56-4.76-7.89.1-9.87-4.4 8.22 1.47 3.51-11.45 10.46-8.09 6.14 2.65-3.73-4.88-2.59-7.28-.52-6.81 3.19-7.7 8.89-6.1-1.26-2.2-3.2-4.4-3.75-6.87 2.58-1.3 6.83 9.86 5.35 2.37-2.67-10.63 6.69-9.93 9.58-18.95-6.31.81.8-3.97-4.96-3.5-6.96 0 1.88-1.53 3.88-2.41.53-1.77 7.28-9.93.55-5.63.28-2.64.57-5.28.79-7.93z"/><path id="c" d="m554.22 0h7.05c-4.32 2.86.42.79.52 3.56-5.67.46-2.74 3.72-4.71 7.48-6.49 11.41-10.65 27.5-17.59 38.49-5.88 11.06-9.37 24.32-13.94 36.19-2.58 11.78-3.62 15.74-12.43 24.49-3.02 5.86 2.64 5.25 2.42 10.49-7.71 3.19-18.6 6.22-23.53 13.29-3.65 7.05-2.33 16.21 1.1 23.12 2.6 4.33 1.74 16.15 7.59 16.4 2.25 5.59-8.34.02-9.79-1.35 1.55.34 3.1.65 4.69.82-.93-8.54-4.99-16.35-6.84-24.79-3.41-12.2 3.32-14.73 5.24-23.78 1.84 2.96 8.02-4.25 4.02-3.43-4.69.28-2.4-5.86-7.19-3.16-6.08 3.55 3.76-10.35-2.27-5.57-2.16-1.07-.94-8.74 3.29-7.88 9.29-1.42 16.15-1.83 22.36-8.84-.79-9.34 5.89-23.29 8.09-32.36-.97-4.38 4.1 2 2.3-1.94-3.52-4.69 6.22-7.4 3.19-12.48 3.32-2.02 4.91-9.97 5.35-13.73 6.21-2.55.28-7.8 7.11-10.32 4.97-1.3-.39-5.76 3.84-7.6 4.16-4.6 4.96-13.01 10.13-17.1z"/><path id="d" d="m561.27 0h24.54c-4.88 3.81-11.29 3.82-15.6 9.15-2.37 3.47-5.64 4.99-8.74 7.53-13.26 19.29-17.28 36.94-26.56 58.05-.79 4.32-.86 7.28-4.11 10.65-.74 8.94-4.23 17.53-4.97 26.55-.59 2.83-6.32 5.98-2.71 8.95 3.93 2.69 2.75 6.18 3.18 10.35-.2 1.84-.41 3.68-.63 5.52-.3 6.17-4.59 21.48 4.3 23.34 6.97 1.06 17.28-5.79 27.85-5.41 6.41 3.24 10.24-1.27 13.76 5.74.8 2.38-1.89 6.47-2.75 8.81 2.48-7.57-12.59-7.87-17.05-8.57-8.94.16-3.67 3.22-13.46 1.64-4.56 7.29-7.01 14.27-12.5 21.54-3.56-.49-4.2-.22-5.89-3.72-4.83-6.55.4-2.39 1.18-8.09 1.8-3.8.55-6.19-.12-10.03 2.34-6.55 2.16-15.24.43-21.9 3.89-.78-3.25-8.71-4.67-10.85-7.82-4.05-18.27.36-23.75 6.74-3.23 5.99-1.03 14.45 2.14 20.04-.68.36-1.35.72-2.03 1.08-3.43-6.91-4.75-16.07-1.1-23.12 4.93-7.07 15.82-10.1 23.53-13.29.22-5.24-5.44-4.63-2.42-10.49 8.81-8.75 9.85-12.71 12.43-24.49 4.57-11.87 8.06-25.13 13.94-36.19 6.94-10.99 11.1-27.08 17.59-38.49 1.97-3.76-.96-7.02 4.71-7.48-.1-2.77-4.84-.7-.52-3.56z"/><path id="e" d="m585.81 0h6.09c4.08 3.83 9 6.31 13.42 9.65-1.17 4.26 8.61 5.4 1.75 6.89 8.76 3.39 6.88 13.39 10.35 21.81.41 13.8.22 29.35-2.04 42.88 3.1 16.93.13 40.76-10.63 54.12-6.31 7.68-6.1 19.24-10.18 28.65 2.14 3.54-10.46 9.04-5.93 3.94-6.67-.11-13.05 1.79-19.81 1.29.86-2.34 3.55-6.43 2.75-8.81-3.52-7.01-7.35-2.5-13.76-5.74-10.57-.38-20.88 6.47-27.85 5.41-8.89-1.86-4.6-17.17-4.3-23.34.85 5.83-.45 12.04.91 17.7 3.69 1.71 7.74-4.61 11.84-4.98 3.65-.8 13.01-5.26 14.41-1.18 3.62-3.41 7.67-2.34 10.28 1.63 2.97-4.15 4.47-.36 8.24.45 5.85-3.13 4.42 6.86 7.44 9.94 1.64 6.91 7.58 3.97 11.04.53 3.05-3.85 5.54-7.96 6.15-12.94 10.1-18.41 15.33-38.7 17.23-59.53 2.12-14.15.38-29.65-1.89-43.74-3.68-13.59-6.42-27.56-19.16-35.74-12.7-1.67-19.71 4.94-27.66 13.64-11.77 14.29-21.54 32.33-25.66 50.4-5.57 16.42-9.22 33.61-11.13 50.84-.47 2.48-.97 4.96-1.41 7.46-.43-4.17.75-7.66-3.18-10.35-3.61-2.97 2.12-6.12 2.71-8.95.74-9.02 4.23-17.61 4.97-26.55 3.25-3.37 3.32-6.33 4.11-10.65 9.28-21.11 13.3-38.76 26.56-58.05 3.1-2.54 6.37-4.06 8.74-7.53 4.31-5.33 10.72-5.34 15.6-9.15z"/><path id="f" d="m591.9 0h30.11c3.4 2.83.84 1.56-1.79 2.12 1.86.84 5.18 5.6 1.16 5.56 4.04 11.18.3 25.31.42 37.31-1.61 20.55 1.72 40.98.73 61.7 5.79 5.71 7.86 4.47 3.85 12.94 8.58 2.95-4.76 3.16-4.41 8.33-6.62 5.28.64 3.64-8.19 9.87-3.01 6.56-6.3 12.05-9.75 18.26-2.07 11.08 10.08 4.6 14.99 1.93 7.95-8 16.48-3.08 25.17-7.79 4.55-2.87 10.06 3.74 14.64 5.1-1.92 2.64-6.48 3.11-9.26 4.75 4.04 5.33-5.26 4.46-7.99 5.29-3.3-.1-5.08 2.38-8.35 2.25-.87 3.56.88 5.08-2.45 8.22-3.67-1.3.49-3.96-.77-6.55-2.31 1.4-4.44 2.88-7.12 3.53 1.46-1.92 3.03-3.65 4.04-5.87-7.45 2.97-21.33 11.97-26.02.98-7.01 1.42-11.47 6.66-11.5 13.73-.65 2.39 3.29.75 4.57 1.03l1.09.35c-8.49 3.39-18.15.04-28.23 3.91 4.41-2.57 12.36-4.66 9.42-11.31-1.46-2.58-10.48-1.3-7.43-6.41 6.76.5 13.14-1.4 19.81-1.29-4.53 5.1 8.07-.4 5.93-3.94 4.08-9.41 3.87-20.97 10.18-28.65 10.76-13.36 13.73-37.19 10.63-54.12 2.26-13.53 2.45-29.08 2.04-42.88-3.47-8.42-1.59-18.42-10.35-21.81 6.86-1.49-2.92-2.63-1.75-6.89-4.42-3.34-9.34-5.82-13.42-9.65z"/><path id="g" d="m622.01 0h5.93c2.23 13.64-2.83 28.31-.77 41.38-2.01 10.34 2.7 18.99 1.15 27.99-.43 3.15 2.68 6.13-1.22 7.66 4.32 4.7 1.05 15.59 2.41 21.65-4.15 4.03 0 7.06 3.26 9.75 5.34 2.24 14.06 1.84 14.81 7.85 4.13-3.23 11.14-.89 16.27.91 1.79 2.59 1.11 2.43 3.93 1.24-2.44 6.11 4.7 2.32 8.05 3.09-1.75 4.12 2.19 6.38.23 9.54-1.71 3.74-9.59-6.52-9.15-2.24.22 7.49-6.31.24-11.09 2.84-2.54-.24-12.15 2.56-10.17-2.4-7.19.66-2.37 6.23-7.2 7.55-5.04 2.94-1.75-4.16-4.85 1.79-.16 5.2-11.8 2.37-8.91 7.7 6.37.27 8.53 2.5 15.38 1.26-5.45-2.61-3.41-2.25-.51-6.15 1.95 3.26 3.35 5.29 7.44 5.62 6.44.87 11.23 6.98 16.97 8.69 6.88-2.36 13.95-3.79 20.92-5.81 8.22-1.18 8.08-8.78 16.87-5.8-7.47 9.73-13.66 3.81-18.04 13.57-3.89.23-4.36 3.15-7.8 4.4-1.62 2.99 3.52 9.37-1.95 9.88-2.95 1.8-10.44 1.95-7.99 6.91.98 4.18-6.01 13.23-7.07 6.47-5.39-.72-6.22.88-9.85 4.24-5.47-.36-3.27-5.98-8.28-5.29-5.62 1.37-4.5-8.21-8.21-1.99.94 5.81-3.9 3.93-7.07 7.14.66 6.22-6.57 5.61-8.54.61-5.45 2.38-.61.57-.23 3.47-3.46-.43-6.78 7.61-1.09 4.62-1.96 3.91-2.93 8.59-5.32 12.18-6.57 4.04-13.34 5.21-20.37 7.58-8.29 6-14.55 10.35-25.33 6.59-11.23-.04-21.02-4.61-31.99-4.02-7.04 3.36-14.12-5.76-20.02-9.11-6.05-9.74-16.15-8.82-23.97-15.97-3.65-2.95-12.34-1.16-11.94-7.17-2.25 4.09-1.34 2.89-3.72-.27-2.12 6.34-4.81-2.1-8.62 1.37-2.63 2.38-3.84-5.24-7.05-4.39-3.36-4.99-11.05-3.67-15.44-6.31-1.69-7.22-7.72-7.56-12.96-11.37-3.41 7.44-9.55-6.4-9.69-9.54-6.95-3.96-14.59-8.39-22.1-11.18 1.29-2.59 5.8.13 8.06.1 17.65 3.14 35.71 8.07 52.94 13.04-3.66.24-4.82 1.12-7.01 3.85 4.45-.16 8.92 7.75 12.76 10.34 9.26-.71 15.73 10.81 24.89 13.32 8.24 1.06 2.11 5.41 11.91 5.21 4.73 6.74 13.38 13.8 20.65 17.76 9.4-.15 17.43-.33 25.84 4.16 2.32 4.39 11.19 1.29 14.85 3.69 3.68 2.8 13.41 3.55 17.25 1.31 8.88-8.18 19.46-5.56 29.55-10.5 3.19-5.92 1.8-11.35.58-17.44 5.16-1.82 1.65-5.36-1.17-7.54-4.28-2.11-9.66-2.4-14.24-1.14-1.28-.28-5.22 1.36-4.57-1.03.03-7.07 4.49-12.31 11.5-13.73 4.69 10.99 18.57 1.99 26.02-.98-1.01 2.22-2.58 3.95-4.04 5.87 2.68-.65 4.81-2.13 7.12-3.53 1.26 2.59-2.9 5.25.77 6.55 3.33-3.14 1.58-4.66 2.45-8.22 3.27.13 5.05-2.35 8.35-2.25 2.73-.83 12.03.04 7.99-5.29 2.78-1.64 7.34-2.11 9.26-4.75-4.58-1.36-10.09-7.97-14.64-5.1-8.69 4.71-17.22-.21-25.17 7.79-4.91 2.67-17.06 9.15-14.99-1.93 3.45-6.21 6.74-11.7 9.75-18.26 8.83-6.23 1.57-4.59 8.19-9.87-.35-5.17 12.99-5.38 4.41-8.33 4.01-8.47 1.94-7.23-3.85-12.94.99-20.72-2.34-41.15-.73-61.7-.12-12 3.62-26.13-.42-37.31 4.02.04.7-4.72-1.16-5.56 2.63-.56 5.19.71 1.79-2.12zm-175.9 175.33c-3.24 3.66 7.49 2.92 0 0z"/><path id="h" d="m592.16 8.89c12.74 8.18 15.48 22.15 19.16 35.74 2.27 14.09 4.01 29.59 1.89 43.74-1.54-23.98-1.31-45.47-15.86-65.6-5.66-8.8-14.43-6.95-22.66-3.18-17.62 14.21-26.24 33.33-35.85 53.34 4.12-18.07 13.89-36.11 25.66-50.4 7.95-8.7 14.96-15.31 27.66-13.64z"/><path id="i" d="m597.35 22.77c14.55 20.13 14.32 41.62 15.86 65.6-1.9 20.83-7.13 41.12-17.23 59.53-1.26 1.38-3.41 5.84-5.66 4.8-2.36-4.36-2.22-10.4-4.02-14.86-.91-3.96-4.28-2.4-3.12-6.95-3.11-4.57-9.89-6.43-14.47-9.58-18.99 1.04-27.95 14.32-40.73 25.45-3.14-5.3 1.29-15.88-.27-22.99 1.91-17.23 5.56-34.42 11.13-50.84 9.61-20.01 18.23-39.13 35.85-53.34 8.23-3.77 17-5.62 22.66 3.18z"/><path id="j" d="m568.71 121.31c4.58 3.15 11.36 5.01 14.47 9.58-1.16 4.55 2.21 2.99 3.12 6.95 1.8 4.46 1.66 10.5 4.02 14.86 2.25 1.04 4.4-3.42 5.66-4.8-.61 4.98-3.1 9.09-6.15 12.94-3.46 3.44-9.4 6.38-11.04-.53-3.02-3.08-1.59-13.07-7.44-9.94-3.77-.81-5.27-4.6-8.24-.45-2.61-3.97-6.66-5.04-10.28-1.63-1.4-4.08-10.76.38-14.41 1.18-4.1.37-8.15 6.69-11.84 4.98-1.36-5.66-.06-11.87-.91-17.7.22-1.84.43-3.68.63-5.52.44-2.5.94-4.98 1.41-7.46 1.56 7.11-2.87 17.69.27 22.99 12.78-11.13 21.74-24.41 40.73-25.45z"/><path id="k" d="m516.75 129.25c1.42 2.14 8.56 10.07 4.67 10.85 1.73 6.66 1.91 15.35-.43 21.9.67 3.84 1.92 6.23.12 10.03-10.11 5.47-23.74-4.96-25.97-16-3.17-5.59-5.37-14.05-2.14-20.04 5.48-6.38 15.93-10.79 23.75-6.74z"/><path id="l" d="m495.14 156.03c2.23 11.04 15.86 21.47 25.97 16-.78 5.7-6.01 1.54-1.18 8.09-4.77 5.58-9.29-3.33-15.71.16-.18 5.26 3.59 8.3 6.53 11.07 6.21-.42 1.6 4.91 6.75 7.21 1.5 1.15 8.28 4.67 8.03.63 1.58 1.56 1.55 5 4.05 2.4 4.92 6.53 13.3-1.28 16.04 6.88 11.62-2.39 15.08 6.05 26.57 1.86 7.82 2.03 11.46-1.81 18.54-3.8-.28 8.41 9.64-2.4 12.31-3.92-3.7-.41-6.04-1.17-.32-1.89-5.34-5.84.25-3.57.19-8.92-9.16-.97-.14-5.85-7.84-8.76l-1.09-.35c4.58-1.26 9.96-.97 14.24 1.14 2.82 2.18 6.33 5.72 1.17 7.54 1.22 6.09 2.61 11.52-.58 17.44-10.09 4.94-20.67 2.32-29.55 10.5-3.84 2.24-13.57 1.49-17.25-1.31-3.66-2.4-12.53.7-14.85-3.69-8.41-4.49-16.44-4.31-25.84-4.16-7.27-3.96-15.92-11.02-20.65-17.76-9.8.2-3.67-4.15-11.91-5.21-9.16-2.51-15.63-14.03-24.89-13.32-3.84-2.59-8.31-10.5-12.76-10.34 2.19-2.73 3.35-3.61 7.01-3.85 10.21 5.27 24.16 5.21 32.79 12.49 1.45 1.37 12.04 6.94 9.79 1.35-5.85-.25-4.99-12.07-7.59-16.4.68-.36 1.35-.72 2.03-1.08z"/><path id="m" d="m551.78 160.66c4.46.7 19.53 1 17.05 8.57-3.05 5.11 5.97 3.83 7.43 6.41 2.94 6.65-5.01 8.74-9.42 11.31-8.06 2.56-19.12 1.82-26.88-.81-5.68.97-9.32 1.53-14.14-2.3 5.49-7.27 7.94-14.25 12.5-21.54 9.79 1.58 4.52-1.48 13.46-1.64z"/><path id="n" d="m446.11 175.33c-3.24 3.66 7.49 2.92 0 0z"/><path id="o" d="m519.93 180.12c1.69 3.5 2.33 3.23 5.89 3.72 4.82 3.83 8.46 3.27 14.14 2.3 7.76 2.63 18.82 3.37 26.88.81 10.08-3.87 19.74-.52 28.23-3.91 7.7 2.91-1.32 7.79 7.84 8.76.06 5.35-5.53 3.08-.19 8.92-5.72.72-3.38 1.48.32 1.89-2.67 1.52-12.59 12.33-12.31 3.92-7.08 1.99-10.72 5.83-18.54 3.8-11.49 4.19-14.95-4.25-26.57-1.86-2.74-8.16-11.12-.35-16.04-6.88-2.5 2.6-2.47-.84-4.05-2.4.25 4.04-6.53.52-8.03-.63-5.15-2.3-.54-7.63-6.75-7.21-2.94-2.77-6.71-5.81-6.53-11.07 6.42-3.49 10.94 5.42 15.71-.16zm76.47 7.36c-6.63 4.95 3.18 3.37 0 0zm-2.3 12.79c-1.47 3.27 3.44.29 0 0zm2.36 3.36c-1.1 1.04-5.73 1.62-3.72 3.62 1.86 3.09 5.86-4.31 3.72-3.62z"/><path id="p" d="m596.4 187.48c-6.63 4.95 3.18 3.37 0 0z"/><path id="q" d="m594.1 200.27c-1.47 3.27 3.44.29 0 0z"/><path id="r" d="m596.46 203.63c2.14-.69-1.86 6.71-3.72 3.62-2.01-2 2.62-2.58 3.72-3.62z"/><path id="s" d="m345.79 241.26c5.17 8.6 17.9 9.35 26.03 15.13-2.14 3.45-8.49 3.18-10.8 6.78-.08 3.41 2.38 7 3.84 10 4.58 6.9 1.16 13.61 9.86 18.01 3.26 2.97 2.19 10.2 8.08 7.49 9.47 3.41 19.19 10.18 29.22 11.48-2.81 3.97-15.88-5.67-13.59.28 7.04 3.13 13.45 7.61 12.04 16.33 6.64 3.41 20.74-1.85 26.65 6.09 1.27 1.85 5.67.05 4.01 3.13l-1.97.12c-3.39-.32-7.2-2.82-8.88 1.66 2.51 4.07 2.29 5.24-.02 9.32 2.54-10.58-16.95-2.04-22.56-5.86-7.86-4.36-7.19 6.77-13.97 3.04-5.35-5.04-9.43-8.8-17.3-8.94-1.14 6.64-7.48 4.42-5.55 10.61-2.77-2.37-5.63-4.55-8.13-7.24 2.7-.55 5.42-.71 8.15-.99.39-3.28-2.42-6.3-2.86-9.61 4.65-.78 9.55 7.2 12.77 3.74 1.94-1.44.32-7.74 3.01-7.52 4.75 4.93 7.18 12.77 12.52 17.27 1.55-2.56 5.2-2.9 1.6-5.55-4.84-3.69 10.06-5.32 2.24-6.28-4.7-1.8.32-9-1.86-11.85-14.53.86-25.25-19.29-39.64-13.75-8.95-4.22-16.92-11.3-25.57-16.17-6.34-6.83-14.94-9.35-22.25-13.89 5.78-6.37 17.37-6.02 24.41-10.02-7.54-6.35-15.61-6.17-24.14-1.91-3.59 2.34-15.18 1.07-10.27 7.6-2.55.96-15.28-.36-14.54 2.97 4.76 1.65 12.21-.02 13.56 7.2-3.49-.35-6.21-2.35-9.87-1.88 2.35 5.31 8.43 2.64 9.95 7.95 2.16 8.12 9.04 9.84 7.92 17.75-2.64.66-7.84-.77-9.09 2.22 5.09 3.92 12.97 3.54 18 7.23 6.89 5.91-17.48 7.3-7.17 12.01 8.29 1.8 18.42.18 26.3 3.82 3.36 3.4 13.87 2.56 11.35 8.88 5.63 9.05 5.83 18.14 15.51 22.46 1.06 3.11-1.82 3.43-3.91 4.4 1.24-5.88-7.22-5.93-8.83-11.77-2.89-11.31-8.78-19.32-20.05-22.89-7.15 1.26-15.47-.73-22.35-2.74-4.74-1.74-2.14-6.51-4.47-9.47-4.3-2.52-8.84-4.86-13.67-6.18 3.17-3.22-3.14-.57-4.07-3.16-2.21-3.1-6.74-6.73-7.35-10.46 3.68-5.36 3.72-11 7.77-16.26 2.16-10.9-11.54-10.07-17.93-13.71 5.13-.79 18.4 4.92 18.27-3.66 6.38 3 14.75-2.01 21.68-2.63 3.99-2.05 13.01-2.25 11.49-8.63 7.36 2.08 14.78-2.36 21.54-5.27 2.27-2.68.04-5.8 4.89-6.68z"/><path id="t" d="m713.67 250.29c3.27.79 2.34 6.31 4.54 8.51 2.92 3.01 9.27 1.68 12.05 4.93 6.03 5.4 3.66 10.56 5.98 17.05 4.55-1.23 8.89-3.15 8.43 3.86-.04 4.92 6.81 16.98-3.17 15.11-.53 5.53.76 14.54 5.84 17.91 7.79 5.63 1.04-7.71 5.84-11.52 8.97-7.91 1.23-22.5 6.13-31.85 8.01-2.24 4.68 5.39 8.39 9 9.03 2.24 16.06.12 24.57-2.55-3.78 5.44-12 3.65-17.77 5.41 3.3 5.7-1.93 11.24-.5 17.87 1 7.62 3.29 16.14-6.61 18.45-7.56 2.19.09-11.23-.94-14.47-2.52-9.81 2.89-16-2.71-24.83-1.67-4.79-4-.59-4.23 2.18-1.73 8.37 5.13 15.61-4.26 21.92-6.29 2.43 3.35 19-5.86 13.34-13.59-5.45-7.88-17.44-13.89-29.03 1.08-6.91-3.5-10.64-2.51-17.61.67-7.27-12.32-16.32-16.2-7.14-5.38 7.17-15.04 4.55-19.28 11.68-2.13 1.79-3.7 2.31-6.41 1.56l-1.14-1.3c-2.9-3.11-6.58-5.23-9.14-8.74 3.27-7.52 10.17-9.6 16.95-13.38 2.61-1.01 15.52 4.2 12.96-1.31-10.55-6.21-26.8 1.38-37.58 4.8-1.7.32-3.4.59-5.1.9 12.98-7.63 30.86-10.17 45.62-10.75z"/><path id="u" d="m710.73 255.34c2.56 5.51-10.35.3-12.96 1.31-6.78 3.78-13.68 5.86-16.95 13.38-2.18 4.28-5.06 2.95-.77 6.74-9.04-1.68-19.24.31-28.38.46-3.87-1.81-10.09 2.65-5.76-4.22 10.34 2.55 17.62-8.93 27.24-12.87 10.78-3.42 27.03-11.01 37.58-4.8z"/><path id="v" d="m335.27 264.07c-7.04 4-18.63 3.65-24.41 10.02 7.31 4.54 15.91 7.06 22.25 13.89-5.98-2.42-8.63-5.32-15.29-2.07-4.43 3.55-8.84-5.95-11.89-5.04-6.19 11.91 4.69 13.31 4.49 24.8 6.81 3.14 18.1.76 23.98 5.94 1.68 1.74 5.52 6.79.18 5.79-7.77-4.42-11.68 2.22-19.79 3.2-2.76.89-6.03.68-5.17 4.61-10.31-4.71 14.06-6.1 7.17-12.01-5.03-3.69-12.91-3.31-18-7.23 1.25-2.99 6.45-1.56 9.09-2.22 1.12-7.91-5.76-9.63-7.92-17.75-1.52-5.31-7.6-2.64-9.95-7.95 3.66-.47 6.38 1.53 9.87 1.88-1.35-7.22-8.8-5.55-13.56-7.2-.74-3.33 11.99-2.01 14.54-2.97-4.91-6.53 6.68-5.26 10.27-7.6 8.53-4.26 16.6-4.44 24.14 1.91z"/><path id="w" d="m399.41 264.42c5.39.92 10.36 2.16 14.68 5.73-.2 4.05-3.53 2.15-6.15 2.16-10.11-1.79-24.84-4.82-32.62-11.51 2.92-4.99 18.99 2.37 24.09 3.62z"/><path id="x" d="m673.15 260.14c-9.62 3.94-16.9 15.42-27.24 12.87-4.33 6.87 1.89 2.41 5.76 4.22 9.14-.15 19.34-2.14 28.38-.46-4.29-3.79-1.41-2.46.77-6.74 2.56 3.51 6.24 5.63 9.14 8.74-12.78 1.89-9.44 18.5-20.68 22.39-8.03 1.85-13.76 6.38-20.46 10.71-4.72 1.16-3.31-2.44-6.82-3.52 6.05-3.7 8.53-13.24 6.37-19.78-4.14-1.93-9.9 6.37-13.39 8.4-4.16 2.53.63 4.94-.17 8.98-7.53 5.65 5.32 3.35 5.99 9.14 8.18-3.8-5.51 10.21 2.2 11.92 5.81 1.58 7.59 3.66 4.36 9.34-8.77 13.75-.54 27.55-7.13 41.58-1.28-4.49-3.01-1.12-6.19-.89 2.06-5.27 10.46-3.14 5.22-10.31-8.09-2.93-10.77 8.65-15.11 12.86 5.43-.94 9.99 6.41 13.68 2.6 9.67 6.01-.96 2.21-4.77 4.9 5.13 7.27 4.83 5.62-.36 12.52.62 7.07 11.3 7.45 16.96 7.47-4.3 3.39 6.56 1.73 8.09 3.35 4.25 2.26 6.16-.35 3.71-4.25 5.39-1.53 10.13-1.45 15.59-.37 3.52.71 3.25-3.24 2.61-5.49-.22-3.27-5.17-.75-7.38-1.44.03-1.93.31-3.76-.21-5.65 4.25.13 8.11.84 12.17-.91 12.2-2.28 24.37.47 36.87-.85-1.74 2.05.98 1.44 2.25 2.19 7.74 3.47 13.48 4.05 21.78 4.98-6.46.25 9.31 4.4-.06 3.74 9.04 11.26 19.02 21.31 29.11 31.59 5.7.3 12.67-5.96 19.09-5.22 1.5.19-1.92 3.57-2.23 4.29-3.43 1.5-7.29 2.82-10.35 4.97 8.77 3.82 20.98 1.86 30.52 3.7 2.35.99 4.1-2.58 5.85-3.77 5.47-.58 9.91 1.93 15.3 3.4-.16 4.42 11.82 3.98 14.7 6.44-5.14-.08-10.18.06-15.31.51-20.83-2.08-42.37-.9-62.9-4.87 3.93.04-1.34-2.22-.79-4.75-7.91-3.24-20.01.93-21.71-10-8.59-7.38-10.99-20.88-23.34-17.58-8.65 3.42-19.4 6.38-25.23 13.86-7.87-.65-20.33-6.13-27.74-2.37 18.61 6.54 37.73 9.73 57.08 13.12-6.62.58 8.31 3.07 1.95 4.31-6.17.91 5.64 2.5 4.74-.95 4.93 4.98 11.63 3.31 18.18 4.92 29.49 5.88 60 8.67 89.98 9.11-1.65 1.59-4.65.32-6.02 2.76 3.23-.16 10.65-1.11 12.93 1.06-25.61.72-51.28-2.53-76.71-5.29-18.02-3.23-36.03-5.22-54.14-7.66-8.92-2.96-16.75-.77-25.44 1.41 2.03 2.85-6.4 9.06-8.8 9.25 1.13 5.1-10.08 3.8-13.2 4.73-9.31.71-1.18 4.29-10.42 5.44-2.77 1.31-4.55-.73-7.38-.21-7.09-6.29-19.55-12.02-18.77-22.59-.69-6.16-4.1-10.18-6.21-15.92 10.02-10.17 28.59 3.15 41.01-2.21-2.92-7.18-12.54-10.37-19.46-8.44-6.58-3.54-11.9-6.79-19.4-8.4-4.66-1.39-3.83-4.81-4.45-8.66-2.2-1.94-5.87-1.36-8.57-1.2 1.9 2.11 4.29 3.57 6.09 5.78-6.71-1.56-16.74-4.14-22.31-8.27.32-7.08 1.11-6.38-5.52-7.83-1.99-5.46-4.25-.59-9.64-5.37-6.3-3.71-12.55-3.33-19.53-3.73-6.34-1.8-1.18 4.07-7.95.77-8.08 4.6 7.38 4.91 9.1 10.3 11.36 3.21 21.24 5.9 31.49 12.51 2.85 1.75 9.58 3.55 3.37 6.71-8.63 1.36-20.15 6.35-26.66-1.41-3.58-2.32-3.8-8.7 1.45-8.9 4.02-3.61-7.65 2.22-6.66-3.7-4.93 6.09-9.47 12.56-14.28 18.78-2.29 1.77 3.16 1.66 4.07 2.29 11.96 3.08-9.44 6.68-9.51 1.36-6.79 3.76-13.8 4.2-21.46 2.98 1.32-3.13 3.4-5.72 4.17-9.11 8.96-6.66 7.37 4.34 16.86 2.74 4.59 1.07 2.48-8.85 6.59-8.68 2.19-.6 9.38-6.18 3.91-6.99-10.59-6.65-9.89 11.72-20.33 8.54 1.58-3.58 9.95-11.98.08-9.4-19.24-.03-33.66 7.67-51.48-4.34-4.22-3.66-6.81-1.24-11.2.38-6.31 3.02-15.03.49-21.59-.87 2.4-3.22 9.14-1.4 2.96-5.66 8.03.71 23.85 4.34 28.7-3.3 4-2.92 10.93-1.75 7.9-8.69 8.08-3.95 6.91-11.49 16.18-9.68 3.02.85 12.92-.51 11.81 4.63.88 3.42-7.2 6.41-3.02.71-7.62 2.73-4.31 9.95 1.22 12.39 4.3-2.09 6.38 2.11 10.84.7-.24-3.22 1.46-6.32 1.13-9.38-3.56-.88-6.99-3.88-2.42-6.1 7.5-.35 12.49 6.6 20.76 5.56-4.07-3.05-11.75-3.66-12.92-9.14-5-7.34 7.61-4.71 10.56-2.46 3.4 4.92 13-1.93 10.19-6.06-5.07 2.75-6.45 3.96-11.65.3 8.7-3.72 2.95-4.88 9.59-9.44-2.61.04-4.68.96-6.92-.81 5.56-.81 11.64.65 16.78-1.28-4.7-4.4-.62-2.61 2.82-4.15 3.11 3.33 7.42 8.98 11.29 3.02.91-1.34.68-8.17 2.91-4.49 1.03 4.37-3.11 7.66-1.6 12.61 4.09-2.82 11.04-12.02 8.91-16.91-6.58-2.37-4.63-6.9-10.33-9.81-9.46-4.9-18.33-4.92-28.56-3.1 1.35.93 2.7 1.84 4.05 2.77-2.08-.52-4.16-1.02-6.25-1.52 1.28-3.2-7.49-1.48.96-5.15-10.5-3.28-19.15-.53-29.31 2.45-.28 1.59-.2 3.14-.34 4.77-10.89 1.48-20.85 2.94-31.42-1.2-8.48-1.99-12.1 3.57-21.31 3.1 4.56 8.9-7.66 4.91-4.59 14.29-5.82 4.58 1.61 8.48-10 8.72-3.44-9.44-.73-13.71-13.8-13.41 1.66-3.08-2.74-1.28-4.01-3.13-5.91-7.94-20.01-2.68-26.65-6.09 1.41-8.72-5-13.2-12.04-16.33-2.29-5.95 10.78 3.69 13.59-.28 4.88-3.41 12.47-1.3 15.81 3.44 3.86-3.5-.52-8.76 2.5-11.31 5.62 1.49 21.02 9.78 25.49 2.92 7.68 5.54 17.35.9 25.49.62 7.79 4.79-5.58 8.3-9.11 9.5-1.3.91-10.47 3.02-7.51 5 5.77 3.12 6.88-5.62 12.98-2.08 4.43-2.89 7.32-6.36 13.11-6.38-7.77 6.16 4.36 5.7 7.42 3.32 3.02-2.25 6.15-1.73 9.63-2.44.97-4.01-2.87-4.6 1.06-7.74-12.36 3.09-15.61-9.37-30.59-6.89.94-1.92 5.92-.31 6.05-1.89-.24-4.25.54-4.98 4.48-3.09 6.94.36 12.71.3 17.91 6.11 2.29 5.17 12.36 4.92 13.61 11.35 1.02 2.39.06 7.78 4.26 6.03 7.79-3.72 14.77-8.72 23.02-11.59 1.7 1.54 4.34 3.55 5.24.16 1.92-.83 15.86 4.55 8.36.22 4.19-.81 10.75-4.99 12.4 1.08 5.93 6.48 11.45 13.08 19.17 17.6-.8-3.25-2.56-5.97-3.77-9.04 2.67.19 3.9 1.75 5.65 3.5.56-1.91 1.1-3.37 2.5-4.84 2.49 2.71 3.78 3.89 7.72 3.16-.11-2.61-.69-5.14-.81-7.75 8.26-1.76 9.55 6.98 13.83 11.96-1.35 5.09-8.86-2.77-11.95-2.9-.76 4.94 4.72 4.92 5.22 9.42-7.27-4.24-7.31 2.3-5.41 7.32-5.53 1.75-.39-8.11-4.6-6.61-.16 10.32-9.4 20.38-15.54 28.35-1.79 2.79-7.8 6.99-5.84 10.55-6.69 1.45 2.55-10.97-3.44-5.85-4.46 5.95-12.07 1.6-14.31 8.73-.8 1.65-1.95 2.99-3 4.47 6.99 1.15 12.34-2.94 19.05.16 10.53 5.28 28.59-3.15 37.28 5.29-.95-4.56 4.13-2.26 6.71-4.72-2.91-1.25-11.92 1.96-7.5-3.43-3.95-.74-6.88 3.21-9.48.1 2.9-.43 5.79-.85 8.69-1.22-3.55-3.59-5.79-8.18-.64-11.58 8.61-2.72 21.6 10.11 27.62.64 3.67-5.05-1.45-14.1-1.2-20.24-4.96-1.5-8.18-4.95-12.33-7.82-9.22-6.13-3.82-20.77-3.35-29.76-1.56-8.1.49-15.67.26-23.86 2.72-7.33 9.49-1.76 14.23-5.73 4.75-4.07 9.02-1.96 14.49-1.53 5.29-2.49 9.99-6.88 15.17-9.82 1.7-.31 3.4-.58 5.1-.9zm-106.69 132.03c-.17 4.71 5.31-1.61 0 0z"/><path id="y" d="m732.99 273.97c-.99 6.97 3.59 10.7 2.51 17.61 6.01 11.59.3 23.58 13.89 29.03 9.21 5.66-.43-10.91 5.86-13.34 9.39-6.31 2.53-13.55 4.26-21.92.23-2.77 2.56-6.97 4.23-2.18 5.6 8.83.19 15.02 2.71 24.83 1.03 3.24-6.62 16.66.94 14.47 9.9-2.31 7.61-10.83 6.61-18.45-1.43-6.63 3.8-12.17.5-17.87 5.77-1.76 13.99.03 17.77-5.41l.74-.82c5.71-5.04 10.87 1.33 8.26 7.28.27 2.38-5.78 12.86-.46 11.59 5.68-2.18 13.49-4.93 19.53-4.19 1.01 3.97-9.4 6.7-12.06 8.64-4.81 2.74-8.03 6.78-10.35 11.74-9.48 9.64-19.01 14.98-33.06 13.56.22 6.23-8.28 8.24-7.41 14.07 1.47 4.41-5 8.21-4.2 12.02 1.67 1.54 8.5 4.61 1.74 4.31-6.69-1.59-6.73 5.81-11.33 1.67-11.09-6.77-18.53 1.15-30.02 2.79-8.75-.55-15.29 2.05-21.17 8.42-.91-6.83-4.26 4.96-6.1-1.22-7.79-1.58-.13 2.39-7.77 3-4.52.62-8.06 5.56-11.18 8.6 1.4 3.58 2.59 7.11 3.67 10.8-4-.07-.67-9.31-6.91-7.88-5.28 4.79-9.77 1.94-15.83.71 3.65-8.14 7.54-1.78 11.43-8.03 1.77-1.86 5.24-2.03 5.11-5.05-.21-5.12 7.92-2.64 6.52-8.53 1.9-8.67 7.23-6.12 14.41-7.91 5.58.76 10.3-1.36 16-.4-.07-4.64 8.58-1.29 12.8-1.77 4.96.38 10.09-3.12 15.07-3.74 7.78 5.06 9.44-3.92 17.38 3.52 2.28-4.35 4.42-6.11 8.49-9.37-8.41-4.92-6.7-13.83 3.18-13.86-.53-4.21-6.81-6.24-10.08-8.11-9.13 5.58-11.04-11.98-12.29-17.83-1.84-3.18.58-11.2-4.84-9.1.15-9.15.32-18.84-2.75-27.46-9.08-7.48-11.44 3.26-18.23 7.31-5.23 2.98-8.13 5.77-11.75 10.52-3.22.61-5.89-3.84-7.71-5.95 2.71.75 4.28.23 6.41-1.56 4.24-7.13 13.9-4.51 19.28-11.68 3.88-9.18 16.87-.13 16.2 7.14z"/><path id="z" d="m728.79 268.19c3.07 8.62 2.9 18.31 2.75 27.46 5.42-2.1 3 5.92 4.84 9.1-5.41 6.06 2.01 10.35-1.67 15.92-5.09-.12-7.71-7.36-12.18-9.06 5.58-4.36-1.74-3.15-4.57-3.98 1.36-2.69 9.5.34 2.83-4.26-9.7 5.2-4.89-8.31-8.26-12.28-.61 5.04-3.06 2.93-5.64 5.73 2.41 2.17 3.91 1.18 1.33 4.35 3.69 2.49 3.67 10.76 8.37 7-.02 2.45-.9 5.78 2.61 6.07 5.68-.52.92 7.97 6.57 7.55 4.09 1.24-6.95 2.5-4.09 4.47 2 1.1 4.98.65 7.23.87-3.43 1.46-2.16 2.15-2.13 5.26-3.43-.32-1.86.28-2 2.91-3.3.05-2.32.65-3.1 3.45-2.29-2.01-3.81-5.34-6.46-6.77-.02 4.08.58 5.17 4.01 7.49-.81 2.7-1.35 3.25.33 5.83-4.48-.77-1.42-6.09-6.74-4.63-6.87 1.06.51-6.26-6.79-6.16 2.71-3.45 4.39.9 6.86 2.29 4.05-4.12-5.99-6.68-7.76-3.69-.97 1.97-1.83 3.96-2.99 5.83-1.89-4.21 2.82-5.83-1.67-8.84-.73 4.5-1.42 3.65-5.2 4.54 3.95 3.63-5.62 5.5-7.75 7.05-4.17 3.17-2.8-3.15-5.3.28.65 5.02 8.27 1.61 9.49 3.88-6.27-.84-6.38 2.26-11.34 1.47-3.77 7.82-11.19 11.21-19.77 10.89-.18 2.81 1.2 3.32-2.27 3.61-.49 4.5-5.73 8.87-4.8 1.51-2.95-.69-12.09-6.18-5.65-8.28-7.57-4.89 1.58-17.3 3.47-23.7.42-4.83 8.76-2.21 7.26-5.94-4.13-3.33-10.94 3.14-14.11-2.19-.41-5.06.87-10.18 7.12-9.52 4.31-5.92 15.19-6.3 17.66-12.54 11.24-3.89 7.9-20.5 20.68-22.39l1.14 1.3c1.82 2.11 4.49 6.56 7.71 5.95 3.62-4.75 6.52-7.54 11.75-10.52 6.79-4.05 9.15-14.79 18.23-7.31z"/><path id="A" d="m858.55 279.42c5.46 5.81 12.45 1.47 16.39 7.66 6.65 2.97 20.51-.78 21.64 9.21.28 5.06 9.36 2.49 6.84 7.04-6.63 4.02 8.64 10.27 3.12 14.11-5.71 1.34 1.65 8.37 4.34 9.42-1.78.43-9.12-.26-3.66 1.55 6.7 1.79 3.44-3.76 9.69-3.63 9.38-4.5 12.5-14.85 8.65-24.37-.64-3.77-6.9-14.37 1.23-11.27 7.13 5.55 13.56 15.45 11.44 24.83.76 9.99-8.62 12.33-10.02 20.15 6.29-2.46 14.21-4.55 14.28-12.7 7.75-5.48 5.3-9.7 3.54-17.39 2.49-12.56-11.05-17.15-18.82-23.09 2.29-3.41 6.44.99 8.85 3.1 3.74 2.64 6.72.81 8.39 6.11 4.47.24 8.19 1.87 12.03 4.03-2.41 3.66-6.12 7.91-1 11.32 6.65 1.09 12.92 2.63 19.39 4.55-1.27-2.35-5.45-4.2.05-3.36-1.31-3.99-5.14-1.61-6.97-4.58 8.24-.56 16.95 4.85 23.24 9.58 3.47-1.22 11.17 2.77 3.99 4.04-6.98-3.18-8.63 1.02-15.02 2.73 3.49 5.27 12.02 2.5 17.14 5.28 6.14 3.71 12.21 1.17 15.34 8.72 7.62 2.65 4.56-3.47 12.44-5.35 7.12-5.88-.27-11.53-5.11-15.03-7.42 1.38-9.83-2.91-15.96-3.93-3.33 1.3-14.24-3.01-7.05-6.2 8.13-2.97 16.61-2.53 21.15 6.08-.12-4.22 8.51.17 4.17-4.1.24-3.58-5.7-6.71-1.2-7.87 9.52 7.83 15.84 19.58 10.44 32.4-5.04 6.78-8.11 11.3-9.14 19.99-6.52 9.93-26.59 16.32-35.59 23.19 2.38 2.2-3 1.02-4.08 2.18-10.87 5.51-20.82 8.12-31.54 12.72 1.51 1.6 4.53 1.86 5.16-.77 8.27 3.24 20.09-6.38 27.82-9.59 10.87-4.57 21.04-9.71 30.96-16.06 13.21-5.16 24.11-12.53 30.36-25.65 3.16-4.3 1.14-12.2 7.64-13.37 6.32 6.86 22.22 8.64 30.89 15.06v271.84h-230.82c-13.53-8.64-26.6-15.22-38.24-26.95-7.19-10.6-14.59-23.1-18.67-35.23-1.85-5.68-1.32-19.04-10.98-14.58-9.58 8.29-18.57 14.83-28.42 22.66-10.1 9.13-24.2 13.19-34.53 22.46-12.78 9.39-23.43 21.67-35.81 31.64h-17.08c25.08-16.53 44.75-39.16 70.59-54.94 20.48-12.94 44.02-29.84 67.99-34.84-3.2 6.12-6.83 11.4-6.02 18.77 1.7 7.13 10.46 8.52 7.78 16.13 8.89 18.02 35.61 31.02 52.19 40.92 11.86 5.76 22.15 10.99 35.42 12.31 1.27-.08 3.05-4.37.58-2.27-3.71 3.29-3.77-4.96-5.43-6.83-.65 1.91-1.59 3.36-3.34 1.53-4.72-4.81-12.93-5.45-18.18-9.83-11.34-1.14-19.56-14.74-30.64-19.33-11.24-11.42-24.38-23.85-24.7-40.81 3.76-7.86 10.21-20.1 20.37-19.71 5.66-.76 10.2-3.53 15.08-6.23 32.72-1.12 63.15-4.41 94.45 8.61 20.06 5.25 38.83 17.8 53 32.48 1.04 7.49 1.91 16.37-4.65 20.87-10.78-.53-5.93 8.03-15.32 10.75-28.38 11.97-65.27 7.12-94.45.19-9.82-4.56-23.09-7.93-27.18-18.76-4.11-9.62-10.53-21.21-9.85-31.83 10.41-8.11 21.28-12.62 35.01-11.43 16.55-.52 36.43 2.16 52.68 5.44 14.94 4.21 29.01 14.82 36.59 28.43 4.94 5.9-.98 10.56 2.34 17.3 7.85.09 10.7-7.56 9.68-14.31-4.58-11.12-11.54-19.85-21.83-26.22-11.28-7.85-27.28-9.74-39.44-14.2-16.84-5.07-33.81-6.04-51.22-4.05-2.93-.64 3.78 3.38 1.02 2.76-9.11-.65-13.35 6.15-20.73 9.01-3.83-5.96-9.1.85-12.4 3.94-6.93 8.73.22 21.96 2.79 31.52 2.47 10.26 8.04 18.57 17.77 23.17 27.22 13.18 59.28 19.22 89.22 13.97 12.9-2.82 24.5-3.88 35.03-12.87 8.74-3.95 16.8-.21 22.8-10.21 4.9-7.66 2.01-15.89 6.32-24.29-4.38-12.33-25.51-22.6-36.06-28.9-10.06-6.92-20.81-7.88-31.5-12.52-8.46-2.16-20.99-2.31-28.16-6.45 13.75-3.83 25.47-1.92 38.58 3.12 16.64 4.59 29.85 14.18 44.87 22.04 11.69 7.72 22.85 11.82 27.5 26.43.21 7.68 13.26 3.34 11.57-2.73-2.21-4.37 7.76-4.95 5.47-8.15-11.46 1.46-14.47-8.01-23.7-13.35-14.07-9.29-25.99-20.05-42.33-25.65-10.54-3.18-20.96-8.28-31.79-9.32-.83-2.78 1.99-1.21 3.59-1.4 13.78 2.62 27.98 6.61 41.51 10.44 13.71 4.14 23.91 12.35 34.85 21.16 6.48 5.19 12.49.23 17.29-4.33 2.09-10.08 8.71-16.95 15.04-24.53 2.76-2.42 8.45-3.9 7.96-8.12-2.01-2.38-3.64-6.52-7.06-3.57-3.77-.6-6.92-1.6-4.83-6.01-5.55-3.74-3.91 2.68-2.66 5.55-6.3-1.17-1.48-6.11-9.63-4.48-2.58 4.12-7.17.16-11.32.74 1.57 1.19 4.62 1.74 5.06 3.82-12.4-5.75-27.78.61-41.02 1.11-15.82-.97-31.05 3.82-47.03 4.03-28 4.32-57.47 6.11-85.14 10.71-6.37-2.67-13.48 3.24-16.81-2.22-6.85 3.37-10.51 3.92-18.25 3.5-3.56.26 8.86-7.76 11.08-3.89 47.27-10.21 101.87-8.74 150.18-19.8-13.28-3.59-27.34 2.06-41.21 3.32-22.88 2.27-51.82 3.68-73.75 6.17-3.62-.49-7.23-1.32-10.78-2.19 1.43-2.13.79-9.69 4.34-6.35 5.87 1.42 8.34-7.22.58-7.54-13.14-1.19 5.99-4.16 8.04-2.05 4.21-7.13 12.22-.17 19.17-5.25 34.21 1.61 71.15-3.28 104.5-11.67-.79-2.01-6.73-3.5-3.32.37-2.07-.39-7.2-4.75-3.97.04-4.89-1.87-4.93-1.77-9.6.61-13.23-1.14-27.9 3.07-41.41 3.74-19.74 1.44-39.92-.86-59.61 1.37-8.45-.73-20.64 3.65-28.05-.66 2.93-.56 11.18 2.19 12.32-1.12 18.31-.37 36.42.34 54.67-1.37 25.27-3.71 50.83-7.35 75.66-13.25 6.43-1.24 12.71-1.22 18.05-5.17 5.97-.01 11.39-.26 17.25-1.71-4.79-5.28-15.15-9.7-22.33-8.37-4.61-5.15-10.45-5.64-16.68-8.18-5.34-2.17-11.98-6.44-18.55-3.89-11.11-.45-13.18 16.46-16.74 24.41-2.96 6.24 7.02 4.57 7.84 6.08-8.11.63-15.68 2.27-23.41 3.22-2.23-.65-8.48-.48-6.51-4.33 8.07-11.96 16-24.97 22.9-37.57.53-2.24.2-4.28.26-6.54 6.44-1.53 6.66 5.72 13.17.08-8.08-3.16-4.14-2.3.19-6.35-47.71 13.8-100.65 16.52-150.2 14.76-13.54.66-27.45-2.91-40.85-1.03-20.57-3.62-40.14-5.6-60.89-8.48-12.5 1.32-24.67-1.43-36.87.85-4.05-.34-8.1-.22-12.15-.51.65-5.82 2.76-5.43 7.84-6.1 11.75-2.87 20.01 4.13 30.92-2.81 12.83-3.41 20.59-13.43 34.51-10.35 6.25-.11 7.76-7.96 12.41-10.77 4.49-2.31 3.15-8.95 4.67-13.43-4.51-7.44 5-16.37 11.6-11.29 4.14 3.34 9.67 2.56 9.64-3.69 4.31-5.37 12.3-9.74 17.16-15.52 3.88-2.1 10.24.21 14.6-1.43 1.64-3.22-4.22-6.4-3.21-9.08 4.86-3.45 11.22-6 16.79-8.15 8.04 1.11-1.38 9.37 3.16 13.64 5.89 3.12 27.8.77 28.03 10.36-1.92 8.66 6.69 3.27 7.72-1.29 3.05-9.07 10.19-12.65 11.05-21.64-5.3-3.9-2.32-3.27 1.2-6.38-12.1-6.03-17.51-4.99-27.45-8.27-7.4 8.2-5.67-.25-13.6 1.44 2.32 3.12 5.29 13.59-.99 7.36 6.4.95.38-5.37-2.82.31-.67-4.02-.72-1.66-2.61-.14-7.67-3.83-13.73-7.79-21.61-1.8-5.65-6.59-5.71-19.69-17.94-15.73 4.04-6.42 9.96 1.09 15.43-4.57 3.16 8.19 3.95 4.75 6.13-1.19 3.1 2.13 7.26 1.38 2.22-1.88 5.87.73 10.65-2.02 16.69-1.12 12.29-3.71 17.23 3.54 24.92 11.13zm-41.72 84.48c-6.43 1.06-9.13 6.53-15.82 6.07-6.55-1.56-7.47 6.07-6.68 10.69 4.73 6.47 16.22 7.09 22.74 11.14-9.84-.26-20.66-1.5-30.29-3.54-2.03-3.98-3.75-13.08-8.89-5.26 3.66 3.61 7.59 9.75 13.04 10.15 15.91 5.44 34.19 1.56 51.09 2.9 19.02 3.04 37.21-1.44 57.26-3.31 33.06-3.11 66.67-12.22 95.72-28.67 2.55-3.94-7.52 2.71-9.02 2.95-5.15 2.54-10.75-1.61-14.87 2.03-3.52 2.72-7.62 1.27-12.08 1.66 2.66-4.47 5.84-.03 7.81-5.56-5.36-1.88-13.28-10.1-18.72-6.05-3.28 1.84-4.23 4.19-2.99 7.73 2.07 4.77-1.9 7.79-.7 12.98-11.32 3.31-23.72 6.25-35.51 7.07 12.59-7.61 19.39-15.85 24.12-29.87 3.07-10.11 4.5-18.86 14.74-24.27 3.58-3.56 7.98-4.97 12.1-7.54-3.28-1.17-6.11-.83-8.1-4.18-5.37 1.93-6.91 6.29-11.06 9.68-11.74 9.56-25.08 12.99-39.72 15.33-13.13 1.36-26.01 5.24-38.85 5.82-8.08-1.65 3.06-3.49 5.08-4.49 10.31.05 21.55-4.58 31.43-7.28 10.42-5.29 20.24-2.58 28.6-12.81 2.79-1.95 6.56-13.34-.01-5.94-7.26 5.89-21.99 13.96-31.39 13.86-6.04-5.55-18.88-11.55-26.26-7.14 4.35 3.71 4.9 7.53 9.25 11.82-10.67-1.49-15.97 7.26-25.87 2.62-4.69 1.43-9.01 4.08-13.65 5.8-.91 3.03 8.34 2.26 8.2 3.56-6.7 2.84-20.47 2.15-26.28 6.04 3.18 4.65-1.29 3.99-4.42 6.01zm131.44 183.26c-3.96 1.24-4.54 2.09-6.03 5.85 5.16-.03 14.3-2.53 15.82-8.04-2.54-12.23-13.89-20.34-26.06-20.95-8.99 1.84-17.1-3.56-25.63-1.59-11.05 4.25-27.08 3.05-37.34 11.58-3.8 5.24-7.13 13.03-1.19 18.05 4.15 12.34 18.13 16.7 29.15 20.94 18.64 4.17 41.08 3.15 59.77-.3-.27-2.34-9.95-3.1-12.97-5.29-13.27 4.27-26.51.43-39.56-3.05-9.78-3.24-23.41-10.04-25.17-21.38-2.37-7.87 5.63-13.98 12.31-15.62 13.78-2.36 30.04-2.7 43.05 3.18 5.15 1.96 15.23 10.97 13.85 16.62z"/><path id="B" d="m811.1 292.78c7.88-5.99 13.94-2.03 21.61 1.8 1.89-1.52 1.94-3.88 2.61.14 3.2-5.68 9.22.64 2.82-.31 6.28 6.23 3.31-4.24.99-7.36 7.93-1.69 6.2 6.76 13.6-1.44 9.94 3.28 15.35 2.24 27.45 8.27-3.52 3.11-6.5 2.48-1.2 6.38-.86 8.99-8 12.57-11.05 21.64-1.03 4.56-9.64 9.95-7.72 1.29-.23-9.59-22.14-7.24-28.03-10.36-4.54-4.27 4.88-12.53-3.16-13.64-5.57 2.15-11.93 4.7-16.79 8.15-1.01 2.68 4.85 5.86 3.21 9.08-4.36 1.64-10.72-.67-14.6 1.43-4.86 5.78-12.85 10.15-17.16 15.52.03 6.25-5.5 7.03-9.64 3.69-6.6-5.08-16.11 3.85-11.6 11.29-1.52 4.48-.18 11.12-4.67 13.43-4.65 2.81-6.16 10.66-12.41 10.77-13.92-3.08-21.68 6.94-34.51 10.35-10.91 6.94-19.17-.06-30.92 2.81-5.08.67-7.19.28-7.84 6.1 4.05.29 8.1.17 12.15.51-4.06 1.75-7.92 1.04-12.17.91l-.97-.23c-1.08-3.69-2.27-7.22-3.67-10.8 3.12-3.04 6.66-7.98 11.18-8.6 7.64-.61-.02-4.58 7.77-3 1.84 6.18 5.19-5.61 6.1 1.22 5.88-6.37 12.42-8.97 21.17-8.42 11.49-1.64 18.93-9.56 30.02-2.79 4.6 4.14 4.64-3.26 11.33-1.67 6.76.3-.07-2.77-1.74-4.31-.8-3.81 5.67-7.61 4.2-12.02-.87-5.83 7.63-7.84 7.41-14.07 14.05 1.42 23.58-3.92 33.06-13.56 2.32-4.96 5.54-9 10.35-11.74 2.66-1.94 13.07-4.67 12.06-8.64-6.04-.74-13.85 2.01-19.53 4.19-5.32 1.27.73-9.21.46-11.59 2.61-5.95-2.55-12.32-8.26-7.28.04-.96.09-1.92.15-2.87 12.23-3.96 12.29 9.14 17.94 15.73z"/><path id="C" d="m317.82 285.91c6.66-3.25 9.31-.35 15.29 2.07 8.65 4.87 16.62 11.95 25.57 16.17 5.03 3.2 10.68 5.28 15.52 8.7 4.98 5.65-2.76-1.5-.34 7.07-7.77-4.48-15.22-1.93-23.7-3.28-2.52-.86-6 .62-4.46 3.58 2.56 9.58 20.61 8.94 23.32 16.32-12.26.45-21.26-7-33.1-7.51-7.88-3.64-18.01-2.02-26.3-3.82-.86-3.93 2.41-3.72 5.17-4.61 8.11-.98 12.02-7.62 19.79-3.2 5.34 1 1.5-4.05-.18-5.79-5.88-5.18-17.17-2.8-23.98-5.94.2-11.49-10.68-12.89-4.49-24.8 3.05-.91 7.46 8.59 11.89 5.04z"/><path id="D" d="m648.37 288.57c2.16 6.54-.32 16.08-6.37 19.78-2.47-.59-4.88-1.33-7.19-2.4.8-4.04-3.99-6.45.17-8.98 3.49-2.03 9.25-10.33 13.39-8.4z"/><path id="E" d="m712.53 291.09c3.37 3.97-1.44 17.48 8.26 12.28 6.67 4.6-1.47 1.57-2.83 4.26 2.83.83 10.15-.38 4.57 3.98 4.47 1.7 7.09 8.94 12.18 9.06 3.68-5.57-3.74-9.86 1.67-15.92 1.25 5.85 3.16 23.41 12.29 17.83 3.27 1.87 9.55 3.9 10.08 8.11-9.88.03-11.59 8.94-3.18 13.86-4.07 3.26-6.21 5.02-8.49 9.37-7.94-7.44-9.6 1.54-17.38-3.52-4.98.62-10.11 4.12-15.07 3.74-4.22.48-12.87-2.87-12.8 1.77-5.7-.96-10.42 1.16-16 .4-7.18 1.79-12.51-.76-14.41 7.91 1.4 5.89-6.73 3.41-6.52 8.53.13 3.02-3.34 3.19-5.11 5.05-3.89 6.25-7.78-.11-11.43 8.03 6.06 1.23 10.55 4.08 15.83-.71 6.24-1.43 2.91 7.81 6.91 7.88l.97.23c.52 1.89.24 3.72.21 5.65 2.21.69 7.16-1.83 7.38 1.44.64 2.25.91 6.2-2.61 5.49-5.46-1.08-10.2-1.16-15.59.37 2.45 3.9.54 6.51-3.71 4.25-1.53-1.62-12.39.04-8.09-3.35-5.66-.02-16.34-.4-16.96-7.47 5.19-6.9 5.49-5.25.36-12.52 3.81-2.69 14.44 1.11 4.77-4.9.83-1.4 1.69-2.79 2.4-4.26 6.59-14.03-1.64-27.83 7.13-41.58 3.23-5.68 1.45-7.76-4.36-9.34-7.71-1.71 5.98-15.72-2.2-11.92-.67-5.79-13.52-3.49-5.99-9.14 2.31 1.07 4.72 1.81 7.19 2.4 3.51 1.08 2.1 4.68 6.82 3.52 6.7-4.33 12.43-8.86 20.46-10.71-2.47 6.24-13.35 6.62-17.66 12.54-6.25-.66-7.53 4.46-7.12 9.52 3.17 5.33 9.98-1.14 14.11 2.19 1.5 3.73-6.84 1.11-7.26 5.94-1.89 6.4-11.04 18.81-3.47 23.7-6.44 2.1 2.7 7.59 5.65 8.28-.93 7.36 4.31 2.99 4.8-1.51 3.47-.29 2.09-.8 2.27-3.61 8.58.32 16-3.07 19.77-10.89 4.96.79 5.07-2.31 11.34-1.47-1.22-2.27-8.84 1.14-9.49-3.88 2.5-3.43 1.13 2.89 5.3-.28 2.13-1.55 11.7-3.42 7.75-7.05 3.78-.89 4.47-.04 5.2-4.54 4.49 3.01-.22 4.63 1.67 8.84 1.16-1.87 2.02-3.86 2.99-5.83 1.77-2.99 11.81-.43 7.76 3.69-2.47-1.39-4.15-5.74-6.86-2.29 7.3-.1-.08 7.22 6.79 6.16 5.32-1.46 2.26 3.86 6.74 4.63-1.68-2.58-1.14-3.13-.33-5.83-3.43-2.32-4.03-3.41-4.01-7.49 2.65 1.43 4.17 4.76 6.46 6.77.78-2.8-.2-3.4 3.1-3.45.14-2.63-1.43-3.23 2-2.91-.03-3.11-1.3-3.8 2.13-5.26-2.25-.22-5.23.23-7.23-.87-2.86-1.97 8.18-3.23 4.09-4.47-5.65.42-.89-8.07-6.57-7.55-3.51-.29-2.63-3.62-2.61-6.07-4.7 3.76-4.68-4.51-8.37-7 2.58-3.17 1.08-2.18-1.33-4.35 2.58-2.8 5.03-.69 5.64-5.73z"/><path id="F" d="m478.3 298.11c14.98-2.48 18.23 9.98 30.59 6.89-3.93 3.14-.09 3.73-1.06 7.74-3.48.71-6.61.19-9.63 2.44-3.06 2.38-15.19 2.84-7.42-3.32-5.79.02-8.68 3.49-13.11 6.38-6.1-3.54-7.21 5.2-12.98 2.08-2.96-1.98 6.21-4.09 7.51-5 3.53-1.2 16.9-4.71 9.11-9.5-8.14.28-17.81 4.92-25.49-.62 6.51-3.07 16.76-3.2 22.48-7.09z"/><path id="G" d="m582.87 303.12c8.18.23 10.39 4.95 14.31 10.59-1.4 1.47-1.94 2.93-2.5 4.84-1.75-1.75-2.98-3.31-5.65-3.5 1.21 3.07 2.97 5.79 3.77 9.04-7.72-4.52-13.24-11.12-19.17-17.6-1.65-6.07-8.21-1.89-12.4-1.08 7.5 4.33-6.44-1.05-8.36-.22-.9 3.39-3.54 1.38-5.24-.16 11.41-5.04 23.45-6.87 35.24-1.91z"/><path id="H" d="m398.32 317.9c2.18 2.85-2.84 10.05 1.86 11.85 7.82.96-7.08 2.59-2.24 6.28 3.6 2.65-.05 2.99-1.6 5.55-5.34-4.5-7.77-12.34-12.52-17.27-2.69-.22-1.07 6.08-3.01 7.52-3.22 3.46-8.12-4.52-12.77-3.74.44 3.31 3.25 6.33 2.86 9.61-2.73.28-5.45.44-8.15.99-5.76-5.83-.42 10.03-1.43 9.83-5.28-2.89-7.77-11.69-14.05-10.61 2.52-6.32-7.99-5.48-11.35-8.88 11.84.51 20.84 7.96 33.1 7.51-2.71-7.38-20.76-6.74-23.32-16.32-1.54-2.96 1.94-4.44 4.46-3.58 8.48 1.35 15.93-1.2 23.7 3.28-2.42-8.57 5.32-1.42.34-7.07-4.84-3.42-10.49-5.5-15.52-8.7 14.39-5.54 25.11 14.61 39.64 13.75z"/><path id="I" d="m551.9 317.26c-8.45 3.67.32 1.95-.96 5.15-8.35-1.62-14.98 2.22-23.97 2.97 2.74 3.75 7.21-.83 11.04 1.6 2.44 1.62 8.26 2.88 8.97 5.82-6.99.27-14.02.61-21.01.17-6.1-2-8.14 10.51-10.72 12.42-1.22-1.33-.58-3.76-.72-5.43-3.82 1.97-6.87 5.58-10.46 7.98-3.42-4.64-5.8-5.17-10.9-7.14-3.35-4.69-8.02-.6-11.07 2.19-8.07 2.72-9.26 8.47-6.28 15.95-7 1.49-8.78-13.72-10.89-18.27-3.07-9.38 9.15-5.39 4.59-14.29 9.21.47 12.83-5.09 21.31-3.1 10.57 4.14 20.53 2.68 31.42 1.2.14-1.63.06-3.18.34-4.77 10.16-2.98 18.81-5.73 29.31-2.45z"/><path id="J" d="m581.7 324.26c5.7 2.91 3.75 7.44 10.33 9.81 2.13 4.89-4.82 14.09-8.91 16.91-1.51-4.95 2.63-8.24 1.6-12.61-2.23-3.68-2 3.15-2.91 4.49-3.87 5.96-8.18.31-11.29-3.02-2.14-1.9-4.25-3.84-6.37-5.76 2.43-.52 10.43 1.23 10.78-2.07-2.49-8.17-11.41-6.08-17.74-8.08-1.35-.93-2.7-1.84-4.05-2.77 10.23-1.82 19.1-1.8 28.56 3.1z"/><path id="K" d="m927.26 327.27c-8.36 10.23-18.18 7.52-28.6 12.81-9.88 2.7-21.12 7.33-31.43 7.28-2.02 1-13.16 2.84-5.08 4.49 12.84-.58 25.72-4.46 38.85-5.82 14.64-2.34 27.98-5.77 39.72-15.33 4.15-3.39 5.69-7.75 11.06-9.68 1.99 3.35 4.82 3.01 8.1 4.18-4.12 2.57-8.52 3.98-12.1 7.54-10.24 5.41-11.67 14.16-14.74 24.27-4.73 14.02-11.53 22.26-24.12 29.87 11.79-.82 24.19-3.76 35.51-7.07-1.2-5.19 2.77-8.21.7-12.98-1.24-3.54-.29-5.89 2.99-7.73 5.44-4.05 13.36 4.17 18.72 6.05-1.97 5.53-5.15 1.09-7.81 5.56 4.46-.39 8.56 1.06 12.08-1.66 4.12-3.64 9.72.51 14.87-2.03 1.5-.24 11.57-6.89 9.02-2.95-29.05 16.45-62.66 25.56-95.72 28.67-1.82-1.86-12.95-3.16-5.66-5.14 5.39-1.49-2.21-3.73-3.78-.78-5.89 2.04-13.5 1.71-19.85 3.12-9.65-2.17-15.88 2.89-25.94.85-12.24-1.9-23.9-1.19-33.45-10.42-1.11-1.32-3.26-4.33-2.3-6.02 10.22-9.59 23.33-7.94 34.48-10.24-8.75.23-17.24-1.19-25.95-.21 3.13-2.02 7.6-1.36 4.42-6.01 5.81-3.89 19.58-3.2 26.28-6.04.14-1.3-9.11-.53-8.2-3.56 4.64-1.72 8.96-4.37 13.65-5.8 9.9 4.64 15.2-4.11 25.87-2.62-4.35-4.29-4.9-8.11-9.25-11.82 7.38-4.41 20.22 1.59 26.26 7.14 9.4.1 24.13-7.97 31.39-13.86 6.57-7.4 2.8 3.99.01 5.94z"/><path id="L" d="m550.94 322.41c2.09.5 4.17 1 6.25 1.52 6.33 2 15.25-.09 17.74 8.08-.35 3.3-8.35 1.55-10.78 2.07 2.12 1.92 4.23 3.86 6.37 5.76-3.44 1.54-7.52-.25-2.82 4.15-5.14 1.93-11.22.47-16.78 1.28 2.24 1.77 4.31.85 6.92.81-6.64 4.56-.89 5.72-9.59 9.44 5.2 3.66 6.58 2.45 11.65-.3 2.81 4.13-6.79 10.98-10.19 6.06-2.95-2.25-15.56-4.88-10.56 2.46 1.17 5.48 8.85 6.09 12.92 9.14-8.27 1.04-13.26-5.91-20.76-5.56-4.57 2.22-1.14 5.22 2.42 6.1.33 3.06-1.37 6.16-1.13 9.38-4.46 1.41-6.54-2.79-10.84-.7-5.53-2.44-8.84-9.66-1.22-12.39-4.18 5.7 3.9 2.71 3.02-.71 1.11-5.14-8.79-3.78-11.81-4.63-9.27-1.81-8.1 5.73-16.18 9.68 3.03 6.94-3.9 5.77-7.9 8.69-4.85 7.64-20.67 4.01-28.7 3.3-7.29-1.48-12.87-5.23-19.02-9.11-3.09-5.14-8.52-5.38-8.81-11.99-.27-5.47-4.97-10.04-2.2-14.93 8.43 1.03-.87-11.72 10.22-13.91l1.97-.12c13.07-.3 10.36 3.97 13.8 13.41 11.61-.24 4.18-4.14 10-8.72 2.11 4.55 3.89 19.76 10.89 18.27-2.98-7.48-1.79-13.23 6.28-15.95 3.05-2.79 7.72-6.88 11.07-2.19 5.1 1.97 7.48 2.5 10.9 7.14 3.59-2.4 6.64-6.01 10.46-7.98.14 1.67-.5 4.1.72 5.43 2.58-1.91 4.62-14.42 10.72-12.42 6.99.44 14.02.1 21.01-.17-.71-2.94-6.53-4.2-8.97-5.82-3.83-2.43-8.3 2.15-11.04-1.6 8.99-.75 15.62-4.59 23.97-2.97zm-104.15 46.43c-1.32-.35-2.61-.96-3.89-1.44 3.41 8.32 11.04 16.91 21.11 14.6 4.09-.21 7.9-.07 11.88-1.2-6.52-6.52-13.05-17.09-21.81-19.92-2.48 2.9-3.69 6.1-7.29 7.96z"/><path id="M" d="m129.37 328.2c6.21 4.18 4.54 8.95 13.15 7.77-3.35-5.11 1.76-2.87 1.63.83 10.55-.33 15.26 2.45 27.87 1.25 5.64.37-1.59 2.85-3.19 2.84-10.14.58-19.56 2.66-29.87 2.48-9.11.39-12.27 2.94-15.29 11.41-1.82 4.73-8.81 9.66-7.55 15 18.3.25 36.77-2.59 55.15-3.19-.88 7.63 4.33 1.23 2.94 8.24 2.38-4.15 15.49-.13 12.17 4.95 10.27-1.23 7.52 5.02 10.79 11.61 4.56-.33 9.07-.41 13.64-.46.13-1.71-4.64-.15-4.65-1.86 19.77.93 35.31-10.98 56.23-7.47 3.24 3.8 4.75 5.2 9.9 5.49-17.74 4.46-35.04 8.65-53.23 11.08-18.25 4.21-36.29 7.9-55.07 8.81-4.5-1.02-6.27 3.37-10.1 1.28-11.87-2.42-20.95 5.38-30.88-.35-1.15.65-14.02 1.65-7.64 3.46 6.27-1.5.58 7.79-1.28 5.56 1.29-7.94-6.09-.46-6.7 2.53 1.87-.59 3.51-1.46 5.53-1.45-.18 3.23-4.02.67-1.02 4.25-4.58 3.23-7.79-.98-11.59 4.5 6.27 4.17 9.45-4.96 13.38.72 16.55-8.17 41.75-5.84 58.76-17.9 12.67-2.57 25.8-3.93 38.63-5.48-11.81 6.35-28.06 9.74-41.06 14.27 2.68 2.37 5.61-.31 8.59-.84 31.77-7.72 60.08-20.59 93.41-20.41-1.83 3.12-3.66 2.97-7.01 2.96-10.86-1.61-22.73 4.16-32.42 8.41-8.38 3.28-19.73 6.52-25.69 13.46-4.38 6.63 2.04 15.16 8.47 17.67 8.06 2.93 15.45 2.14 23.7 2.6-9.08 3.71-20.87 6.44-30.47 6.36-1.51-8.42-17.79-12.78-8.47-21.43 4.92-5.77 3.25-7.82-4.15-7.15-29.17 6.39-56.48 20.11-85.5 27.49-2.1 3.8-1.66 1.37-5.33.64-4.27 3.86-8.21.64-13.2 3.52-4.05-2.36-4.59 5.48-5.73.4-4.24.46-6.54 3.63-11.11 2.24 2.11 2.43 3.79 1.83-.09 3.71 25.82-1.4 61.9 3.02 86.98 0 27.59-2.79 55.01-5.38 82.11-11.55 1.59-.28 3.18-.57 4.76-.85 2.43.93 2.8.42.42 1.65-24.97 6.28-49.63 11.14-75.29 13.55-3.75 8.17 11.37 16.87 17.98 23.21 9.81 1.09 16.24 6.44 25.93 1.89 4.16-1.3 6.43-4.84 6.79-9.08.12-8.25 7.54-12.35 7.26-20.78 4.14-1.96 12.15-3.19 17-3.93-11.16 15.78-21.73 36.79-37.95 47.72-13.81-7.7-28.51-12.84-42.33-20.52-10.96-4.33-18.23-12.16-30.66-9.43.52-4.65 4.52-3.62 7.95-4.11-7.59-2.73 4.14-1.95 4.87-3.69-3.89-.29-7.39-.55-10.94 1.34-3.19-1.26-5.04-1.81-8.01.47 1.3 1.77 2.77 3.37 4 5.19-2.72.29-4.76-5.03-6.69-1.95-5.22 6.59-14.32 8.59-19.31 14.87 3.21 8.21 13.29-4.66 17.68-6.43 8.75-8.41 11.91.66 20.25 3.59 15.65 8.64 39.42 15.53 51.05 28.68-8.41 1.95-22.04 4.35-30.29 4.66-4.23-11.59-14.88-14.24-20.87-24.21-4.38-4.39-9.43 3.18-14.53-.42-7.89-3.69-11.9 5.3-13.1 11.1 2.81-.07 3.91-5.3 4.62-.08-6.09.67-9.87 3.22-15.47 4.79-1.14 5.02.8 1.9 3.6 1.34 1.57 4.2 6.36 2.81 7.02-.99 2.15 5.51 4.29-1.61 10.44-.28 5.8.5-.94 1.57-2.5 3-1.64 1.25 1.62 3.74 2.13 5.14-1.95-.73-3.85-1.5-5.91-1.9 1.64 2.78 4.28 3.42 6.77 5.25-.46 3.2-12.33-1.7-4.91 2.59-8.03.72-15.68 1.12-22.88 5.08 3.86 1.13 6.06-1.21 9.18-1.32-.39 3.1 2.66 5.64 2.2 1.03 12.06 1.79 22.71-.94 34.59-1.51 10.15 4.35 14.58-3.91 24.43-3.7 24.36-5.44 48.4-9.75 72.79-15.06 28.61-7.69 57.83-12.83 85.95-22.52 6.68-1.32 3.25 1.93 2.44 5.1-32.19 9.54-62.45 20.75-95.75 26.9-20.39 3.49-42.01 10.33-60.41 11.87-.79 5.32 2.97-2.29 3.38 3.09 45.71-5.93 92.75-15.33 136.22-30.8 3.63-1.68 4.23-.12 2.39 2.95 2.61.17 10.9-3.52 7.04 1.78 2 .6 4.02-.08 4.87 2.23-4.08 2.65-1.31 1.62 1.64 2.23 7.43.85 25.25 5.3 27.2-5.32 2.55.22 5.98 3.43 1.01 2.85-4.65 3.18 8.28.86 5.19 5.68-2.99 5.01 2.13 5.43 5.49 7.28-5.16.65-.59 1.43 1.01 3.1-1.53.39-3.07.72-4.62 1.01-1.64.01-8.44-3.41-5.67.56 7.36 2.44-9.93 3.03-1.98-.88-7.56-8.93-14.73-3.82-24.63-6.28-3.45-.88-6.23.92-9.6.66 1.3 3.88 8.01 7.75.29 9.4 2.55 2.39-3.61 6.49 1.75 5.18 4.48-.95 2.12 1.26-.2 2.2 1.99 3.12 6.4-1.53 5.43 3.22 5.01-.58 11.4-.7 15.83-2.93-7.59-3.58 12.42-2.3 10.65-4.67-9.79-.56 3.5-2.71 6.24-3.1 4.29 2.63 6.42-1.15 10.1 1.77-1.7 1.42-3.25 2.37-3.65 4.72 2.87-1.27 4.12-.99 3.65-4.72 1.48-7.62 7.53 1.7 12.24 1.5 3.24.64 6.37 2.37 1.57 4.34 4.38.74 1.67.85-.41 2.2-6.72 1.51-13.49 1.77-20.28 2.61-3.47.18-2.73 4.26.5 4.23 10.1-2.06 20.39-2.22 30.62-3.71 1.49 1.86 10.04 2 3.14 2.5 3.4 3.43 5.29-.71 1.18 4.6-1.33.37-2.69.67-4.05.94-10.4.56-20.7 2.68-30.97 3.95-3.24.38-6.59-3.47-.95-2.49-3.4-3.84-10.04-3.08-14.14-.92-.3 8.58-13.19 3.36-17.86 2.3-13.93 6.72-27.98 7.31-43.08 9.81-20.74 3.32-39.76 3.58-60.4 6.71-1.84 2.19-9.78-1.36-5.9 2.51-4.81-1.37-8.92-.78-13.67.43 6.76 4.09 18.82-3.81 26.58 4.02 8.23 8.09 14.51 19.61 15.94 31.11 1.83 7.15 5.18 3 7.61 6.45h-265.11v-172.23c3.85 1.29 7.04.45 9.59-1.93-3.51-6.33 2.04-.52-.63-6.21 6.57-10.68 19.51-16.78 31.85-11.42-2.32 6.43-2.96-.09-7.89 4.84-5.52-1.33-18.56-4.89-14.87 5.84 3.3 5.82 17.64-.23 22.18 4-5.17 4.91-11.36 2.62-18.25 4.42 2.49 3.78 8.88-.18 12.3 1.23 14.84.98 27.37-1.61 36.16-14.75.34-8.52-7.23-11.71-12.94-16.22-11.34-6.3-22.49-6.94-34.69-10.35-5.81-1.06-10.11.81-14.89-4 2.57-.24 5.15-.31 7.72-.24-4.13 4.49 4.8.59 6.7.6 10.27 1.31 20.13 1.36 30.48 2.82 5.06-1.8 1.32-5.15-2.58-5.1-4.16-.15-.23-6.16-4.6-4.77-14.32 3.35-27.38-.04-41.59-1.01 1.83-5.7 16.72-8.64 21.94-12.63 2.19-2.49 1.69 4.69 3.41.66 3.38-8.27 7-2.75 11.88-9.11 7.23 5.19-4.65 14.03 7.28 13.55-4.02 4.13 5.38 3.81 1.84 8.24 5.57 4.01 6.4 5.74 14.51 5.89 18.33 10.04 32.14 14.33 53.4 14.22 4.75-2 7.42 1.72 12.33 1.83-2.35-3.21-.26-1.7 2.26-2.49-.82-2.7-4.43-1.95-2.38-4.84-8.66 2.76-16.36-1.6-24.69-1.7-11.8-1.6-22.15-6.83-32.78-11.89 7.01-3.48 17.1 4.38 23.58 4.52 2.26-4.22 5.66-7.98 7.32-12.45-12.03-2.55-22.08-3.19-33.97.68-4.17 4.56-5.16-.27-9.15-1.28-8.24 2.58-9.68-10.06-8.6-15.55.77-7.43 8.24-18.04 15.66-20.12 1.49 5.5-7.73.65-.82 5.9 13.06.9 34.66-4.08 47.92-5.79 7.78.53 13.09-5.77 14.38-12.96zm142.99 218.92c1.4 1.55.85 3.24 3.6 2.88 17.94-4.03 42.33-2.06 59.48-6.87-1.35 3.94 3.37 2.17 5.53 1.8 6.68-4.57 16.69-3.25 24.49-4.16.12-1.73.35-3.23.97-4.85-15.49.88-29.62 4.91-45.28 3.38-9.6 4.96-19.31 4.24-29.54 5.34-7.12 5.15-15.15-1.71-21.29 2.71-2.82 4.56 1.5 2.74 2.04-.23z"/><path id="N" d="m376.43 335.32c7.87.14 11.95 3.9 17.3 8.94 6.78 3.73 6.11-7.4 13.97-3.04 5.61 3.82 25.1-4.72 22.56 5.86-.47.96-.91 1.94-1.32 2.93-2.77 4.89 1.93 9.46 2.2 14.93.29 6.61 5.72 6.85 8.81 11.99 2.09 5.21 9.52 6.82 13.1 11.24.59 3-10.42 5.84-5.95 8.68 5.26 4.37 15.99 1.45 15.64 9.45 3.97 5.27 14.92-4.43 17.45-8.11 2.25-3.65 5.23-10.2 8.21-2.63-1.32 6.13-8.72 11.18-12.56 16.37-4.19-.26-15.8-1.86-11.87 6.07 5.36 2.45 7.93 5.26 7.3 11.24-2.83 5.3-5.77 2.8-10.42 3.5-10.79-.51-18.93 6.55-28.44-2.09-7.74-2.82-13.72-7.97-21.14-10.91-2 2.29-2.57 4.89-6.04 5.22.07-2.29.37-4.52.38-6.81-3.75 1.76-7.59 2.4-11.72 2.16.36-3.07-5.33-8.25-.63-8.96 6.09 2.64 11.18-3.96 17.5-5.46 2.99-1.42 4.84-2.21 1.33-4.78-3.32-1.51-.18-5.37-3.23-5.85-5.69-.99-6.47-6.7-10.6-10.52-6.52-8.48-16.49-16.66-18.77-27.28-1.15-2.31-2.81-4.43-4.29-6.54.13-1.08-.34-1.69-1.39-1.84l-.7-1.09c0-1.53-.74-2.22-2.23-2.06-1.93-6.19 4.41-3.97 5.55-10.61z"/><path id="O" d="m439.16 336.1c-11.09 2.19-1.79 14.94-10.22 13.91.41-.99.85-1.97 1.32-2.93 2.31-4.08 2.53-5.25.02-9.32 1.68-4.48 5.49-1.98 8.88-1.66z"/><path id="P" d="m362.75 338.69c2.5 2.69 5.36 4.87 8.13 7.24.22 1.26.96 1.95 2.23 2.06l.7 1.09c-.12 1.07.35 1.68 1.39 1.84 1.48 2.11 3.14 4.23 4.29 6.54 2.28 10.62 12.25 18.8 18.77 27.28 4.13 3.82 4.91 9.53 10.6 10.52 3.05.48-.09 4.34 3.23 5.85-2.88 1.17-5.91 3.72-9.01 3.93-2.9-1.01-7.01-6.09-8.64-.64-1.53 4.69-4.71 5.66-8.75 2.88-15.68-5.12-31.53-25.39-26.82-42.51 2.09-.97 4.97-1.29 3.91-4.4-9.68-4.32-9.88-13.41-15.51-22.46 6.28-1.08 8.77 7.72 14.05 10.61 1.01.2-4.33-15.66 1.43-9.83z"/><path id="Q" d="m342.89 347.99c1.43 3.83 2.92 6.77.21 10.77.9 4.62-5.49 6-7 10.38-3.05 4.56-2.57 13.02-8.43 14.5-5.81.16-15.45 2.67-18.34-3.99-8.19-9.22-5.84-21.19-15.44-29.75 6.38-4.49 15.59.55 22.92-4.1 10.52-3.4 16.13 1.77 26.08 2.19zm-20.97 31.98c8.38 6.42 8.48-10.7 9.79-15.17.69-8.51-1.6-10.71-10.36-9.44-8.21.22-14.14-6.64-23.14-6.17 4.06 6.83 5.69 14.31 7.78 21.85 7.68 5.12 4.25 14.97 15.93 8.93z"/><path id="R" d="m370.88 345.93c1.49-.16 2.23.53 2.23 2.06-1.27-.11-2.01-.8-2.23-2.06z"/><path id="S" d="m298.21 349.19c9-.47 14.93 6.39 23.14 6.17 8.76-1.27 11.05.93 10.36 9.44-1.31 4.47-1.41 21.59-9.79 15.17-11.68 6.04-8.25-3.81-15.93-8.93-2.09-7.54-3.72-15.02-7.78-21.85z"/><path id="T" d="m373.81 349.08c1.05.15 1.52.76 1.39 1.84-1.04-.16-1.51-.77-1.39-1.84z"/><path id="U" d="m579.8 367.21c10.92-1.32 15.23 4.08 25.31 4.75 2.6 3.11 5.53-.84 9.48-.1-4.42 5.39 4.59 2.18 7.5 3.43-2.58 2.46-7.66.16-6.71 4.72-8.69-8.44-26.75-.01-37.28-5.29-6.71-3.1-12.06.99-19.05-.16 1.05-1.48 2.2-2.82 3-4.47 2.24-7.13 9.85-2.78 14.31-8.73 5.99-5.12-3.25 7.3 3.44 5.85z"/><path id="V" d="m454.08 360.88c8.76 2.83 15.29 13.4 21.81 19.92-3.98 1.13-7.79.99-11.88 1.2-10.07 2.31-17.7-6.28-21.11-14.6 1.28.48 2.57 1.09 3.89 1.44 3.6-1.86 4.81-5.06 7.29-7.96z"/><path id="W" d="m842.78 364.11c-11.15 2.3-24.26.65-34.48 10.24-.96 1.69 1.19 4.7 2.3 6.02 9.55 9.23 21.21 8.52 33.45 10.42 10.06 2.04 16.29-3.02 25.94-.85 6.35-1.41 13.96-1.08 19.85-3.12 1.57-2.95 9.17-.71 3.78.78-7.29 1.98 3.84 3.28 5.66 5.14-20.05 1.87-38.24 6.35-57.26 3.31-16.9-1.34-35.18 2.54-51.09-2.9-5.45-.4-9.38-6.54-13.04-10.15 5.14-7.82 6.86 1.28 8.89 5.26 9.63 2.04 20.45 3.28 30.29 3.54-6.52-4.05-18.01-4.67-22.74-11.14-.79-4.62.13-12.25 6.68-10.69 6.69.46 9.39-5.01 15.82-6.07 8.71-.98 17.2.44 25.95.21z"/><path id="X" d="m358.87 364.77c-4.71 17.12 11.14 37.39 26.82 42.51 4.04 2.78 7.22 1.81 8.75-2.88 1.63-5.45 5.74-.37 8.64.64 3.1-.21 6.13-2.76 9.01-3.93 3.51 2.57 1.66 3.36-1.33 4.78-6.32 1.5-11.41 8.1-17.5 5.46-4.7.71.99 5.89.63 8.96 4.13.24 7.97-.4 11.72-2.16-.01 2.29-.31 4.52-.38 6.81 3.47-.33 4.04-2.93 6.04-5.22 7.42 2.94 13.4 8.09 21.14 10.91 9.51 8.64 17.65 1.58 28.44 2.09l-.09 1.02c-14.92-.28-23.25 8.81-36.4 13.65-18.06 9.81-37.57 17.42-55.36 27.56 15.37-4.55 30.86-11.91 45.68-18.06 1.91 1.76 3.73.75 6.09 1.01-1.43 1.2-2.83 2.3-3.79 3.94 3.65-2.69 3.9.69 6.25 2.93 1.55 2.62 4.89 2.31 3.61 5.8 2.65 3.66 6.79 1.31 9.61 2.97 2.82 4.03 17.54 2.64 11.28 7.89 4.16 1.26 9.02 2.46 14.08 4.37-3.29-8.96 6.8-2.76 6.59-.64-1.66 8.37-3.15 14.67-10.41 19.95 4.83 8.3 20.28 5.51 27.65 2.52 13.96-5.89 27.78-6.03 40.02-14.98 6.38-5.4 9.77 5.08 14.57 8.11 4.59 4.56 13.41 9.39 17.36 13.04-9.12 2.74-25.88 3.04-36.75 5.31-14.47.51-28.67 4.04-43.22 4.43-29.03 1.71-57.66 8.01-86.78 9.39 2.08-1.35 4.79-1.46.41-2.2 4.8-1.97 1.67-3.7-1.57-4.34-4.71.2-10.76-9.12-12.24-1.5-3.68-2.92-5.81.86-10.1-1.77.26-1.53.8-2.27 1.89-3.36 1.55-.29 3.09-.62 4.62-1.01-1.6-1.67-6.17-2.45-1.01-3.1-3.36-1.85-8.48-2.27-5.49-7.28 3.09-4.82-9.84-2.5-5.19-5.68 4.97.58 1.54-2.63-1.01-2.85-2.43-1.15-9.81-2.31-2.7-3.2-.56-1.68-7.68-.63-10.31-.69 2.97-4.59-5.68-1.9-8.13-3.55 3.92 4.31-1.72 3.06-3.38.8-1.28-.68-6.69.63-5.3-1.77 7.4-1.07 14.53-7.57 21.88-6.77-1.1-4.96 14.8-5.66 9.47-9.39-8.9-1.67-19.74 7.57-28.11 9.64.81-3.17 4.24-6.42-2.44-5.1l-.4-.81c25.43-8.16 48.99-17.8 72.44-30.7 12.22.46 14-8.07 23.82-12.35 1.56-1.31 6.21-3.85 1.65-4.57-6.76-2.07-11.36-6.25-18.37-7.12-4.21 5.56-6 11.66-12.13 15.83-3.67 2.8-2.63 5.02.98 7.08-7.95 4.58-16.4 8.47-24.82 12.12-1.4.69-3.03.72-3.04-1.26 2.83-8.07 4.2-17.78 3.14-26.26.64-7.07-8.49-1.99-12.49-2.63 2.27-2.03 2.77-3.97 3.46-6.82 3.51.74 6.48 3.66 9.86 4.32 5.24-.69 8.71-5.5 14.33-5.94-2.46-2.76-3.01-3.82-3.32-7.45-4.49-7.71-12.68-5.77-16.66-13.87-8-4.72-14.1-14.88-13.85-24.34-.22-4-2.42-7.93 2.14-10.29z"/><path id="Y" d="m639.26 366.73c5.24 7.17-3.16 5.04-5.22 10.31 3.18-.23 4.91-3.6 6.19.89-.71 1.47-1.57 2.86-2.4 4.26-3.69 3.81-8.25-3.54-13.68-2.6 4.34-4.21 7.02-15.79 15.11-12.86z"/><path id="Z" d="m439.95 376.93c6.15 3.88 11.73 7.63 19.02 9.11 6.18 4.26-.56 2.44-2.96 5.66 6.56 1.36 15.28 3.89 21.59.87 4.39-1.62 6.98-4.04 11.2-.38 17.82 12.01 32.24 4.31 51.48 4.34-.85 3.02-16.25 13.62-7.11 13.79-.77 3.39-2.85 5.98-4.17 9.11 7.66 1.22 14.67.78 21.46-2.98.07 5.32 21.47 1.72 9.51-1.36-.91-.63-6.36-.52-4.07-2.29 4.81-6.22 9.35-12.69 14.28-18.78-.99 5.92 10.68.09 6.66 3.7-5.25.2-5.03 6.58-1.45 8.9 6.51 7.76 18.03 2.77 26.66 1.41 6.21-3.16-.52-4.96-3.37-6.71-10.25-6.61-20.13-9.3-31.49-12.51-1.72-5.39-17.18-5.7-9.1-10.3 6.77 3.3 1.61-2.57 7.95-.77 6.98.4 13.23.02 19.53 3.73 5.39 4.78 7.65-.09 9.64 5.37 6.63 1.45 5.84.75 5.52 7.83 5.57 4.13 15.6 6.71 22.31 8.27-1.8-2.21-4.19-3.67-6.09-5.78 2.7-.16 6.37-.74 8.57 1.2.62 3.85-.21 7.27 4.45 8.66 7.5 1.61 12.82 4.86 19.4 8.4 6.92-1.93 16.54 1.26 19.46 8.44-12.42 5.36-30.99-7.96-41.01 2.21-26.19-1.56-49.04-1.38-75.82-2.12-11.44-1.06-12.86 8.15-22.69 13.38-4.62 3.56-9.25 7.48-12.89 12.05-.51 6.85 4.17 14.95 5.61 21.58-5.03-4.49-5.01-13.15-8.17-18.89-5.23 4.39-9.13 11.17-13.2 16.68-6.47 2.1 2.26-9.12.47-12.23 2.7 2.36 3.54-1.52 5.34-3.08 2.66-4.01 7.11-5.23 6.59-10.65 1.25 4.11 5-.62 6.94-1.78 3.29-3.69 11.57-10.8 12.71-14.7-9.93-4.99-19.07 7.74-19.65 16.48-3.76-1.73-5.13 7.85-8.86 9.15-3.41-5.54 4.99-12.02 6.44-16.9-1.21-2.72-1.48-10.13-5.61-9.05-10.29.37-27.63.56-35.2 8.06-3.33 1.28-6.64 2.05-8.98-1.31 4.65-.7 7.59 1.8 10.42-3.5.63-5.98-1.94-8.79-7.3-11.24-3.93-7.93 7.68-6.33 11.87-6.07 3.84-5.19 11.24-10.24 12.56-16.37-2.98-7.57-5.96-1.02-8.21 2.63-2.53 3.68-13.48 13.38-17.45 8.11.35-8-10.38-5.08-15.64-9.45-4.47-2.84 6.54-5.68 5.95-8.68-3.58-4.42-11.01-6.03-13.1-11.24zm49.09 41.02c-5.37-1.5-14.03-6.73-15.77 1.73 11.2 3.72 22.31 2.98 34.17.71 4.11-10.96-14.05-2.06-18.4-2.44z"/><path id="aa" d="m973.05 386.22c-4.33 4.05-8.27 3.19-.19 6.35-6.51 5.64-6.73-1.61-13.17-.08-.06 2.26.27 4.3-.26 6.54-1.58-12.26-8.55-3.34-16.25-3.7-3.22 1.2-9.95.84-7.02 6.01-1.35 5.1-7.22 10.61-8.23 16.56-.2 8.59-7.09 10.25-14.27 8.41-12.37-5.44-23.1-14.56-34.82-21.11-7.87-.45-15.85 1.38-23.89 1 12.32 7.99 28.59 12.13 41.94 18.9 11.1 3.72 22.44 10.17 33.92 11.89 5.85-7.83 9.16-18.92 16.57-25.63 5.19-4.6 3.68-11.23 12.05-12.33-6.9 12.6-14.83 25.61-22.9 37.57-1.97 3.85 4.28 3.68 6.51 4.33 7.73-.95 15.3-2.59 23.41-3.22-.82-1.51-10.8.16-7.84-6.08 3.56-7.95 5.63-24.86 16.74-24.41 6.57-2.55 13.21 1.72 18.55 3.89 6.23 2.54 12.07 3.03 16.68 8.18 7.18-1.33 17.54 3.09 22.33 8.37-5.86 1.45-11.28 1.7-17.25 1.71-5.34 3.95-11.62 3.93-18.05 5.17-24.83 5.9-50.39 9.54-75.66 13.25-18.25 1.71-36.36 1-54.67 1.37-11.35-2.34-23.86 1.77-35.52-.87 5.13-.45 10.17-.59 15.31-.51-2.88-2.46-14.86-2.02-14.7-6.44-5.39-1.47-9.83-3.98-15.3-3.4 9.99-6.02 19.76-13.26 29.91-18.71 11.25 4.82 21.62 13.95 33.4 18.39 11.97 8.25 27.02 3 40.65 3.18-15.98-6.9-32.92-11.73-48.7-19.13-9.72-3.76-19.35-8.27-29.34-10.61-10.22 3.11-19.39 10.04-29.38 12.52-7.56 3.87-15.18 4.71-22.56 9.46.31-.72 3.73-4.1 2.23-4.29-6.42-.74-13.39 5.52-19.09 5.22-10.09-10.28-20.07-20.33-29.11-31.59 9.37.66-6.4-3.49.06-3.74 4.44 1.29 8.84 1.25 13.38 1.7 1.89 10.02 11.65 12.25 12.88 23.34 10 1.83 16.06-2.85 24.18-7.18 5.97-2.75 12.41-3.99 18.43-6.5 3.44-7.59 16.89-2.39 24.03-4.18-8.61-4.82-6.62.73-15-1.9-1.62.23-.15-2.12-.19-2.94 49.55 1.76 102.49-.96 150.2-14.76z"/><path id="ab" d="m272.29 387.09c1.8-.04 3.78-.23 5.53.23 10.62 4.6 24.43-3.1 35.34.54-3.69.04-7.4.04-11.08.34 1.82 5.14 10.79-.36 10.84 8.77-9.63-4.09-23.06-8.13-33.21-4.33-2.37 1.31-4.74 2.71-6.83 4.43.59 3.8 8.58-3.31 7.64.67.7 8.94 6.43-3.27.16-4.95 8.7 1.81 23.06 2.99 27.01 12.26-.75 4.8-5.63 15.41-11.9 12.25-3.69-1.3 2.22 3.38-1.17 4.25-11.53 4.39-23.5 8.24-35.54 10.91 6.78 1.15-3.13 5.89-5.97 3.71 5.43 6.52-9.39-1.45-9.66 4.59.04 2.01-2.47 5.39.66 5.69-27.1 6.17-54.52 8.76-82.11 11.55-25.08 3.02-61.16-1.4-86.98 0 3.88-1.88 2.2-1.28.09-3.71 4.57 1.39 6.87-1.78 11.11-2.24 1.14 5.08 1.68-2.76 5.73-.4 4.99-2.88 8.93.34 13.2-3.52 3.67.73 3.23 3.16 5.33-.64 29.02-7.38 56.33-21.1 85.5-27.49 7.4-.67 9.07 1.38 4.15 7.15-9.32 8.65 6.96 13.01 8.47 21.43 9.6.08 21.39-2.65 30.47-6.36-8.25-.46-15.64.33-23.7-2.6-6.43-2.51-12.85-11.04-8.47-17.67 5.96-6.94 17.31-10.18 25.69-13.46 9.69-4.25 21.56-10.02 32.42-8.41 3.35.01 5.18.16 7.01-2.96-33.33-.18-61.64 12.69-93.41 20.41-2.98.53-5.91 3.21-8.59.84 13-4.53 29.25-7.92 41.06-14.27-12.83 1.55-25.96 2.91-38.63 5.48-17.01 12.06-42.21 9.73-58.76 17.9-3.93-5.68-7.11 3.45-13.38-.72 3.8-5.48 7.01-1.27 11.59-4.5-3-3.58.84-1.02 1.02-4.25-2.02-.01-3.66.86-5.53 1.45.61-2.99 7.99-10.47 6.7-2.53 1.86 2.23 7.55-7.06 1.28-5.56-6.38-1.81 6.49-2.81 7.64-3.46 9.93 5.73 19.01-2.07 30.88.35 3.83 2.09 5.6-2.3 10.1-1.28 18.78-.91 36.82-4.6 55.07-8.81 18.19-2.43 35.49-6.62 53.23-11.08z"/><path id="ac" d="m302.08 388.2c3.68-.3 7.39-.3 11.08-.34 3.84 2.05 7.37 2.86 11.64 3.53 1.92 6.26-4.96 4.28-4.36 9.59.14 3.32-1.55 5.36-3.21 7.99 4.63 3.73 8.55-3.53 12.7-4.92.84 6.52-1.12 7.84-6.35 10.72-4.57 1.96-.89 2.55 1.02 4.79-6.94 7.51-22.2 8.92-31.02 12.96-14.75 5.21-29.2 10.41-44.71 13.08-1.58.28-3.17.57-4.76.85-3.13-.3-.62-3.68-.66-5.69.27-6.04 15.09 1.93 9.66-4.59 2.84 2.18 12.75-2.56 5.97-3.71 12.04-2.67 24.01-6.52 35.54-10.91 3.39-.87-2.52-5.55 1.17-4.25 6.27 3.16 11.15-7.45 11.9-12.25-3.95-9.27-18.31-10.45-27.01-12.26l-.97-.15c10.15-3.8 23.58.24 33.21 4.33-.05-9.13-9.02-3.63-10.84-8.77z"/><path id="ad" d="m566.46 392.17c-.17 4.71 5.31-1.61 0 0z"/><path id="ae" d="m721.11 391.47c20.75 2.88 40.32 4.86 60.89 8.48 13.4-1.88 27.31 1.69 40.85 1.03.04.82-1.43 3.17.19 2.94 8.38 2.63 6.39-2.92 15 1.9-7.14 1.79-20.59-3.41-24.03 4.18-6.02 2.51-12.46 3.75-18.43 6.5-8.12 4.33-14.18 9.01-24.18 7.18-1.23-11.09-10.99-13.32-12.88-23.34-4.54-.45-8.94-.41-13.38-1.7-8.3-.93-14.04-1.51-21.78-4.98-1.27-.75-3.99-.14-2.25-2.19z"/><path id="af" d="m959.43 399.03c-8.37 1.1-6.86 7.73-12.05 12.33-7.41 6.71-10.72 17.8-16.57 25.63-11.48-1.72-22.82-8.17-33.92-11.89-13.35-6.77-29.62-10.91-41.94-18.9 8.04.38 16.02-1.45 23.89-1 11.72 6.55 22.45 15.67 34.82 21.11 7.18 1.84 14.07.18 14.27-8.41 1.01-5.95 6.88-11.46 8.23-16.56-2.93-5.17 3.8-4.81 7.02-6.01 7.7.36 14.67-8.56 16.25 3.7z"/><path id="ag" d="m279.71 392.64.97.15c6.27 1.68.54 13.89-.16 4.95.94-3.98-7.05 3.13-7.64-.67 2.09-1.72 4.46-3.12 6.83-4.43z"/><path id="ah" d="m540.2 405.93c10.44 3.18 9.74-15.19 20.33-8.54 5.47.81-1.72 6.39-3.91 6.99-4.11-.17-2 9.75-6.59 8.68-9.49 1.6-7.9-9.4-16.86-2.74-9.14-.17 6.26-10.77 7.11-13.79 9.87-2.58 1.5 5.82-.08 9.4z"/><path id="ai" d="m723.02 411.09c12.35-3.3 14.75 10.2 23.34 17.58 1.7 10.93 13.8 6.76 21.71 10-.55 2.53 4.72 4.79.79 4.75-13.97-2.52-27.95-4.09-41.73-7.72-19.35-3.39-38.47-6.58-57.08-13.12 7.41-3.76 19.87 1.72 27.74 2.37 5.83-7.48 16.58-10.44 25.23-13.86z"/><path id="aj" d="m842.99 411.06c9.99 2.34 19.62 6.85 29.34 10.61 15.78 7.4 32.72 12.23 48.7 19.13-13.63-.18-28.68 5.07-40.65-3.18-11.78-4.44-22.15-13.57-33.4-18.39-10.15 5.45-19.92 12.69-29.91 18.71-1.75 1.19-3.5 4.76-5.85 3.77-9.54-1.84-21.75.12-30.52-3.7 3.06-2.15 6.92-3.47 10.35-4.97 7.38-4.75 15-5.59 22.56-9.46 9.99-2.48 19.16-9.41 29.38-12.52z"/><path id="ak" d="m323.58 414.77c-1.64 4.58 6.27.02 3.51 4.41-3.31 5.06 6.55 3.24 8.9 2.92 7.09 2.91 19.09 8.43 26.92 7.06.57 8.24 2.55 21.32-2.24 28.54-20.04-1.92-43.11-12.26-62.92-7.42.91 2.87-3.34 3.61-3.14 2.11 3.48-5.34-4.22.35-6.09.83 3.25-6.28-4.45 1.19-6.9-1.92-2.34-1.48-8.63-.77-10.47.53 28.86 3.58 59.79 4.97 88.48 11.59 3.07 1.6-.63 2.35-2.01 3.16-6.56 2.11-12.68 5.17-19.15 7.49-21.3-3.64-50.26-12.89-71.77-4.37-2.31 5.91-8.43 6.89-11.66 13.33-2.39 4.47-12.53 10.31-6.19 14.74-2.86 1.13-5.7 1.6-8.63 2.5 1.27 1.39 4.21 1.53 5.96 2.08-24.39 5.31-48.43 9.62-72.79 15.06-9.85-.21-14.28 8.05-24.43 3.7-11.88.57-22.53 3.3-34.59 1.51.46 4.61-2.59 2.07-2.2-1.03-3.12.11-5.32 2.45-9.18 1.32 7.2-3.96 14.85-4.36 22.88-5.08-7.42-4.29 4.45.61 4.91-2.59-2.49-1.83-5.13-2.47-6.77-5.25 2.06.4 3.96 1.17 5.91 1.9-.51-1.4-3.77-3.89-2.13-5.14 1.56-1.43 8.3-2.5 2.5-3-6.15-1.33-8.29 5.79-10.44.28-.66 3.8-5.45 5.19-7.02.99-2.8.56-4.74 3.68-3.6-1.34 5.6-1.57 9.38-4.12 15.47-4.79-.71-5.22-1.81.01-4.62.08 1.2-5.8 5.21-14.79 13.1-11.1 5.1 3.6 10.15-3.97 14.53.42 5.99 9.97 16.64 12.62 20.87 24.21 8.25-.31 21.88-2.71 30.29-4.66-11.63-13.15-35.4-20.04-51.05-28.68-8.34-2.93-11.5-12-20.25-3.59-4.39 1.77-14.47 14.64-17.68 6.43 4.99-6.28 14.09-8.28 19.31-14.87 1.93-3.08 3.97 2.24 6.69 1.95-1.23-1.82-2.7-3.42-4-5.19 2.97-2.28 4.82-1.73 8.01-.47 3.55-1.89 7.05-1.63 10.94-1.34-.73 1.74-12.46.96-4.87 3.69-3.43.49-7.43-.54-7.95 4.11 12.43-2.73 19.7 5.1 30.66 9.43 13.82 7.68 28.52 12.82 42.33 20.52 16.22-10.93 26.79-31.94 37.95-47.72-4.85.74-12.86 1.97-17 3.93.28 8.43-7.14 12.53-7.26 20.78-.36 4.24-2.63 7.78-6.79 9.08-9.69 4.55-16.12-.8-25.93-1.89-6.61-6.34-21.73-15.04-17.98-23.21 25.66-2.41 50.32-7.27 75.29-13.55 2.38-1.23 2.01-.72-.42-1.65 15.51-2.67 29.96-7.87 44.71-13.08 8.82-4.04 24.08-5.45 31.02-12.96-1.91-2.24-5.59-2.83-1.02-4.79zm-16.53 21.33c-.76 1.37-1.81 2.48-2.81 3.67 13.36 2.48 28.12 5.73 41.72 5.18 9.47-.15 9.36-13.06 2.76-16.7-5.61-1.22-11.17-3.36-16.72-4.34-13.12 1.84-25.96 8.73-38.96 13.17-8.47 4.35-19.61 4.94-28.07 9.88 14.79-2.49 28.11-5.07 42.08-10.86z"/><path id="al" d="m489.04 417.95c4.35.38 22.51-8.52 18.4 2.44-11.86 2.27-22.97 3.01-34.17-.71 1.74-8.46 10.4-3.23 15.77-1.73z"/><path id="am" d="m332 423.91c5.55.98 11.11 3.12 16.72 4.34 6.6 3.64 6.71 16.55-2.76 16.7-13.6.55-28.36-2.7-41.72-5.18 1-1.19 2.05-2.3 2.81-3.67-13.97 5.79-27.29 8.37-42.08 10.86 8.46-4.94 19.6-5.53 28.07-9.88 13-4.44 25.84-11.33 38.96-13.17z"/><path id="an" d="m411.27 424.28c7.01.87 11.61 5.05 18.37 7.12 4.56.72-.09 3.26-1.65 4.57-9.82 4.28-11.6 12.81-23.82 12.35-23.45 12.9-47.01 22.54-72.44 30.7-10.52 1.77 4.65-4.1 6.74-4.95 6.47-2.32 12.59-5.38 19.15-7.49 1.38-.81 5.08-1.56 2.01-3.16-28.69-6.62-59.62-8.01-88.48-11.59 1.84-1.3 8.13-2.01 10.47-.53 2.45 3.11 10.15-4.36 6.9 1.92 1.87-.48 9.57-6.17 6.09-.83-.2 1.5 4.05.76 3.14-2.11 19.81-4.84 42.88 5.5 62.92 7.42 4.79-7.22 2.81-20.3 2.24-28.54 4 .64 13.13-4.44 12.49 2.63 1.06 8.48-.31 18.19-3.14 26.26.01 1.98 1.64 1.95 3.04 1.26 8.42-3.65 16.87-7.54 24.82-12.12-3.61-2.06-4.65-4.28-.98-7.08 6.13-4.17 7.92-10.27 12.13-15.83z"/><path id="ao" d="m552 423.95c26.78.74 49.63.56 75.82 2.12 2.11 5.74 5.52 9.76 6.21 15.92-.78 10.57 11.68 16.3 18.77 22.59 6.34 4.7 13.13 8 20.09 11.58-5.4 8.65-13.99 7.95-22.83 9.93-17.84 3.66-36.97 2.08-54.43-2.74-3.67-1.82-8.33-.9-7.07-6.38-5.87 5.81-6.68 21.24-9.42 29.2-.2 1.71-2.21 5.79.96 5.66 6.92-.69 13.86-1.63 20.79-2.31 4.05 4.11 5.88 1.69 9.49 4.24-26.33 3.05-52.76 5.94-79.14 8.53-1.94-.44-15.22.23-7.22-1.5 2.63-.16-2.81-1.31-3.18-1.66 10.87-2.27 27.63-2.57 36.75-5.31-3.95-3.65-12.77-8.48-17.36-13.04-4.8-3.03-8.19-13.51-14.57-8.11-12.24 8.95-26.06 9.09-40.02 14.98-7.37 2.99-22.82 5.78-27.65-2.52 7.26-5.28 8.75-11.58 10.41-19.95 4.42-16.5-2.94-34.1 1.43-51.13 7.57-7.5 24.91-7.69 35.2-8.06 4.13-1.08 4.4 6.33 5.61 9.05-1.45 4.88-9.85 11.36-6.44 16.9 3.73-1.3 5.1-10.88 8.86-9.15.52 5.42-3.93 6.64-6.59 10.65-1.8 1.56-2.64 5.44-5.34 3.08 1.79 3.11-6.94 14.33-.47 12.23 4.07-5.51 7.97-12.29 13.2-16.68 3.16 5.74 3.14 14.4 8.17 18.89-1.44-6.63-6.12-14.73-5.61-21.58 3.64-4.57 8.27-8.49 12.89-12.05 9.83-5.23 11.25-14.44 22.69-13.38z"/><path id="ap" d="m532.71 426.31c-1.14 3.9-9.42 11.01-12.71 14.7-1.94 1.16-5.69 5.89-6.94 1.78.58-8.74 9.72-21.47 19.65-16.48z"/><path id="aq" d="m460.85 432.74c2.34 3.36 5.65 2.59 8.98 1.31-4.37 17.03 2.99 34.63-1.43 51.13.21-2.12-9.88-8.32-6.59.64-5.06-1.91-9.92-3.11-14.08-4.37 6.26-5.25-8.46-3.86-11.28-7.89-2.82-1.66-6.96.69-9.61-2.97 1.28-3.49-2.06-3.18-3.61-5.8-2.35-2.24-2.6-5.62-6.25-2.93.96-1.64 2.36-2.74 3.79-3.94-2.36-.26-4.18.75-6.09-1.01 13.26-7.3 27.1-14.32 41.64-18.68 1.84-.92 4.79-1.92 4.44-4.47z"/><path id="ar" d="m460.76 433.76c.35 2.55-2.6 3.55-4.44 4.47-14.54 4.36-28.38 11.38-41.64 18.68-14.82 6.15-30.31 13.51-45.68 18.06 17.79-10.14 37.3-17.75 55.36-27.56 13.15-4.84 21.48-13.93 36.4-13.65z"/><path id="as" d="m727.13 435.7c13.78 3.63 27.76 5.2 41.73 7.72 20.53 3.97 42.07 2.79 62.9 4.87 11.66 2.64 24.17-1.47 35.52.87-1.14 3.31-9.39.56-12.32 1.12 7.41 4.31 19.6-.07 28.05.66 19.69-2.23 39.87.07 59.61-1.37 13.51-.67 28.18-4.88 41.41-3.74 4.67-2.38 4.71-2.48 9.6-.61-3.23-4.79 1.9-.43 3.97-.04-3.41-3.87 2.53-2.38 3.32-.37-33.35 8.39-70.29 13.28-104.5 11.67-6.95 5.08-14.96-1.88-19.17 5.25-2.05-2.11-21.18.86-8.04 2.05 7.76.32 5.29 8.96-.58 7.54-3.55-3.34-2.91 4.22-4.34 6.35 3.55.87 7.16 1.7 10.78 2.19 21.93-2.49 50.87-3.9 73.75-6.17 13.87-1.26 27.93-6.91 41.21-3.32-48.31 11.06-102.91 9.59-150.18 19.8-2.22-3.87-14.64 4.15-11.08 3.89l.36.84c-13.69.74-26.42 4.61-40.17 3.98-15.63 3.17-32.05 5.57-47.96 6.09-56.2 8.89-118.58 14.11-175.64 21.09 3.39-3.91-.99-2.14-3.43-3.42-9.09 7.27-22.92 6.39-34.11 7.98-24.9 1.72-48.68 2.12-73.63 6.61-4.87.98-8.49 2.32-13.19-.09-11.89 2.31-22.68 6.29-35 6.04 4.11-5.31 2.22-1.17-1.18-4.6 6.9-.5-1.65-.64-3.14-2.5 16.82-1.93 33.58-3.48 50.37-5.86 8.92-1.44 22.44 2.58 28.92-4.17 6.14 4.28 14.31-.13 21.01-1.09 9.72-1.41 19.59-1.59 29.26-2.67 26.38-2.59 52.81-5.48 79.14-8.53 38.39-3.72 74.35-6.83 112.62-11.75 27.87-4.85 56.87-3.29 83.36-11.71 1.18-2.31.08-1.58-1.65-2.28-32.74-4.49-69.34 10.06-101.49 6.44-2.59-.28-4.76.67-7.17 1.43 3.17-2.81 6.3-8.65 10.77-8.94 2.77 3.48 4.7-1.19 0 0 0-7.51 10.55-7.58 15.85-7.27 7.82-1.77-.55-3.91-3.61-4.27 7.3-5.93 3.63 1.68 10.49.01-.48-2.65-5.78-7.03-.45-7.28 3.96-1.39.96 8.41 4.73 4.67 4.48-2.13-2.65-1.08-.85-6.71 1.88 4.42 9.67-.3 6.35-3.68 2.98-.75 5.85-1.58 8.48-3.21-2.05-3.3-2.48-3.07.65-5.67.82 3.71 10.37 1.16 6.96-1.69 6.51.94 10.32 2.83 16.76-.23 25.43 2.76 51.1 6.01 76.71 5.29-2.28-2.17-9.7-1.22-12.93-1.06 1.37-2.44 4.37-1.17 6.02-2.76-29.98-.44-60.49-3.23-89.98-9.11-6.55-1.61-13.25.06-18.18-4.92.9 3.45-10.91 1.86-4.74.95 6.36-1.24-8.57-3.73-1.95-4.31z"/><path id="at" d="m718.04 443.96c18.11 2.44 36.12 4.43 54.14 7.66-6.44 3.06-10.25 1.17-16.76.23 3.41 2.85-6.14 5.4-6.96 1.69-3.13 2.6-2.7 2.37-.65 5.67-2.63 1.63-5.5 2.46-8.48 3.21 3.32 3.38-4.47 8.1-6.35 3.68-1.8 5.63 5.33 4.58.85 6.71-3.77 3.74-.77-6.06-4.73-4.67-5.33.25-.03 4.63.45 7.28-6.86 1.67-3.19-5.94-10.49-.01 3.06.36 11.43 2.5 3.61 4.27-5.3-.31-15.85-.24-15.85 7.27-4.47.29-7.6 6.13-10.77 8.94 2.41-.76 4.58-1.71 7.17-1.43-3.2 2.25-5.15 5.04-9.38 5.27-30.43 3.17-61.88 6.61-92.95 9.79-6.93.68-13.87 1.62-20.79 2.31-3.17.13-1.16-3.95-.96-5.66 2.74-7.96 3.55-23.39 9.42-29.2-1.26 5.48 3.4 4.56 7.07 6.38 17.46 4.82 36.59 6.4 54.43 2.74 8.84-1.98 17.43-1.28 22.83-9.93-6.96-3.58-13.75-6.88-20.09-11.58 2.83-.52 4.61 1.52 7.38.21 9.24-1.15 1.11-4.73 10.42-5.44 3.12-.93 14.33.37 13.2-4.73 2.4-.19 10.83-6.4 8.8-9.25 8.69-2.18 16.52-4.37 25.44-1.41z"/><path id="au" d="m338.47 474.07c-2.09.85-17.26 6.72-6.74 4.95l.4.81c-28.12 9.69-57.34 14.83-85.95 22.52-1.75-.55-4.69-.69-5.96-2.08 2.93-.9 5.77-1.37 8.63-2.5-6.34-4.43 3.8-10.27 6.19-14.74 3.23-6.44 9.35-7.42 11.66-13.33 21.51-8.52 50.47.73 71.77 4.37z"/><path id="av" d="m1055.57 471.3c-2.09 4.41 1.06 5.41 4.83 6.01 3.42-2.95 5.05 1.19 7.06 3.57.49 4.22-5.2 5.7-7.96 8.12-6.33 7.58-12.95 14.45-15.04 24.53-4.8 4.56-10.81 9.52-17.29 4.33-10.94-8.81-21.14-17.02-34.85-21.16-13.53-3.83-27.73-7.82-41.51-10.44-1.6.19-4.42-1.38-3.59 1.4 10.83 1.04 21.25 6.14 31.79 9.32 16.34 5.6 28.26 16.36 42.33 25.65 9.23 5.34 12.24 14.81 23.7 13.35 2.29 3.2-7.68 3.78-5.47 8.15 1.69 6.07-11.36 10.41-11.57 2.73-4.65-14.61-15.81-18.71-27.5-26.43-15.02-7.86-28.23-17.45-44.87-22.04-13.11-5.04-24.83-6.95-38.58-3.12 7.17 4.14 19.7 4.29 28.16 6.45 10.69 4.64 21.44 5.6 31.5 12.52 10.55 6.3 31.68 16.57 36.06 28.9-4.31 8.4-1.42 16.63-6.32 24.29-6 10-14.06 6.26-22.8 10.21-10.53 8.99-22.13 10.05-35.03 12.87-29.94 5.25-62-.79-89.22-13.97-9.73-4.6-15.3-12.91-17.77-23.17-2.57-9.56-9.72-22.79-2.79-31.52 3.3-3.09 8.57-9.9 12.4-3.94 7.38-2.86 11.62-9.66 20.73-9.01 2.76.62-3.95-3.4-1.02-2.76 17.41-1.99 34.38-1.02 51.22 4.05 12.16 4.46 28.16 6.35 39.44 14.2 10.29 6.37 17.25 15.1 21.83 26.22 1.02 6.75-1.83 14.4-9.68 14.31-3.32-6.74 2.6-11.4-2.34-17.3-7.58-13.61-21.65-24.22-36.59-28.43-16.25-3.28-36.13-5.96-52.68-5.44-13.73-1.19-24.6 3.32-35.01 11.43-.68 10.62 5.74 22.21 9.85 31.83 4.09 10.83 17.36 14.2 27.18 18.76 29.18 6.93 66.07 11.78 94.45-.19 9.39-2.72 4.54-11.28 15.32-10.75 6.56-4.5 5.69-13.38 4.65-20.87-14.17-14.68-32.94-27.23-53-32.48-31.3-13.02-61.73-9.73-94.45-8.61-2.65-8.85-5.7 3.38-9.04-3.67 8.67-5.57 20.4-1.98 28.95-5.89-2.44-.04-4.83.03-7.22-.53 27.67-4.6 57.14-6.39 85.14-10.71 15.98-.21 31.21-5 47.03-4.03 13.24-.5 28.62-6.86 41.02-1.11-.44-2.08-3.49-2.63-5.06-3.82 4.15-.58 8.74 3.38 11.32-.74 8.15-1.63 3.33 3.31 9.63 4.48-1.25-2.87-2.89-9.29 2.66-5.55z"/><path id="aw" d="m362.68 475.29c5.33 3.73-10.57 4.43-9.47 9.39-7.35-.8-14.48 5.7-21.88 6.77-1.39 2.4 4.02 1.09 5.3 1.77 1.66 2.26 7.3 3.51 3.38-.8 2.45 1.65 11.1-1.04 8.13 3.55-4.29.78-12.1-1.65-15.19 1.7 2.65-.11 5.25-.46 7.9-.51-.65 3.88-4.74 1.44-7.55 2.34-.28 1.26.79 3.19-.99 3.45-.85-2.31-2.87-1.63-4.87-2.23 3.86-5.3-4.43-1.61-7.04-1.78 1.84-3.07 1.24-4.63-2.39-2.95-43.47 15.47-90.51 24.87-136.22 30.8-.41-5.38-4.17 2.23-3.38-3.09 18.4-1.54 40.02-8.38 60.41-11.87 33.3-6.15 63.56-17.36 95.75-26.9 8.37-2.07 19.21-11.31 28.11-9.64z"/><path id="ax" d="m706.82 486.95c2.77 3.48 4.7-1.19 0 0z"/><path id="ay" d="m804.71 488.02c1.73.7 2.83-.03 1.65 2.28-26.49 8.42-55.49 6.86-83.36 11.71-38.27 4.92-74.23 8.03-112.62 11.75-3.61-2.55-5.44-.13-9.49-4.24 31.07-3.18 62.52-6.62 92.95-9.79 4.23-.23 6.18-3.02 9.38-5.27 32.15 3.62 68.75-10.93 101.49-6.44z"/><path id="az" d="m847.02 490.56c3.33 5.46 10.44-.45 16.81 2.22 2.39.56 4.78.49 7.22.53-8.55 3.91-20.28.32-28.95 5.89 3.34 7.05 6.39-5.18 9.04 3.67-4.88 2.7-9.42 5.47-15.08 6.23-10.16-.39-16.61 11.85-20.37 19.71.32 16.96 13.46 29.39 24.7 40.81 11.08 4.59 19.3 18.19 30.64 19.33 5.25 4.38 13.46 5.02 18.18 9.83 1.75 1.83 2.69.38 3.34-1.53 1.66 1.87 1.72 10.12 5.43 6.83 2.47-2.1.69 2.19-.58 2.27-13.27-1.32-23.56-6.55-35.42-12.31-16.58-9.9-43.3-22.9-52.19-40.92 2.68-7.61-6.08-9-7.78-16.13-.81-7.37 2.82-12.65 6.02-18.77-23.97 5-47.51 21.9-67.99 34.84-25.84 15.78-45.51 38.41-70.59 54.94h-7.86c11.73-8.23 23.51-16.7 34.61-25.81 21.93-21.79 46.98-40.4 73.02-56.97 11.53-6.88 23.55-14.53 36.42-18.56 2.25-1.12 8.83-2.38 2.16-3.08 3.37-1.76 13.59.86 11.29-2.55 5.25.62 13.03.32 16.62-4.16 7.37-2.17-5.28-1.97-6.58-1.97l-.36-.84c7.74.42 11.4-.13 18.25-3.5z"/><path id="aA" d="m358.45 496.66c-7.11.89.27 2.05 2.7 3.2-1.95 10.62-19.77 6.17-27.2 5.32-2.95-.61-5.72.42-1.64-2.23 1.78-.26.71-2.19.99-3.45 2.81-.9 6.9 1.54 7.55-2.34-2.65.05-5.25.4-7.9.51 3.09-3.35 10.9-.92 15.19-1.7 2.63.06 9.75-.99 10.31.69z"/><path id="aB" d="m829.13 494.9c1.3 0 13.95-.2 6.58 1.97-3.59 4.48-11.37 4.78-16.62 4.16 2.3 3.41-7.92.79-11.29 2.55-14.88 4.03-27.89-.07-40.36 10.89-27.84 16.12-53.26 35.39-77.55 56.46-12.1 11.75-24.44 15.94-33.64 29.24-1.61 5.18-5.76 5.21-10.08 7.09-3.48-.3-7.26.12-10.62-.85-1.94-3.63 4.14-6.07 3.43-10.39 1.61-5.96-1.48-10.12-.66-15.85 1.93-10.17-8.91-19.49-15.34-26.14-11.77-11.71-25.97-21.42-42.97-22.94-16-.77-32.03 2.63-48.03 2.95-11.17-.26-19.35 3.69-29.98 5.17-14.18-2.83-26.56.69-40.19 3.5-17.62 3.74-33.69 1.07-49.58 11.28-2.17-.83-3.28.04-5.25.83-.83-2.18 7.01-7.56 2.16-6.75-1.99 4.54-7.34-1.02-7.19-3.95 1.36-.27 2.72-.57 4.05-.94 12.32.25 23.11-3.73 35-6.04 4.7 2.41 8.32 1.07 13.19.09 24.95-4.49 48.73-4.89 73.63-6.61 11.19-1.59 25.02-.71 34.11-7.98 2.44 1.28 6.82-.49 3.43 3.42 57.06-6.98 119.44-12.2 175.64-21.09 15.91-.52 32.33-2.92 47.96-6.09 13.75.63 26.48-3.24 40.17-3.98zm-204.89 33.07c.87-.95 1.79-1.86 2.63-2.85-5.5-1.81-12.12.52-17.93.11 9.9 6.75 20.59 10.41 28.84 19.99 9.19 9.21 15.79 20.49 18.96 33.14 1.15 5.1 7.71.18 9.55-2.07 32.24-24.35 60.75-48.16 96.79-67.17-11.7 1.76-21.65-1.96-30.18 7.82-13.35 8.29-17.75 12.72-30.5 21.47-7.98 4.81-13.51 13.33-21.06 17.91-7.14 2.34-14.49 3.84-18.02-4.52-5.58-15.2-22.79-25.73-39.08-23.83z"/><path id="aC" d="m807.8 503.58c6.67.7.09 1.96-2.16 3.08-12.87 4.03-24.89 11.68-36.42 18.56-26.04 16.57-51.09 35.18-73.02 56.97-11.1 9.11-22.88 17.58-34.61 25.81h-16.21l.79-.74c4.32-1.88 8.47-1.91 10.08-7.09 9.2-13.3 21.54-17.49 33.64-29.24 24.29-21.07 49.71-40.34 77.55-56.46 12.47-10.96 25.48-6.86 40.36-10.89z"/><path id="aD" d="m763.08 509.12c-36.04 19.01-64.55 42.82-96.79 67.17-1.84 2.25-8.4 7.17-9.55 2.07-3.17-12.65-9.77-23.93-18.96-33.14-8.25-9.58-18.94-13.24-28.84-19.99 5.81.41 12.43-1.92 17.93-.11-.84.99-1.76 1.9-2.63 2.85 16.29-1.9 33.5 8.63 39.08 23.83 3.53 8.36 10.88 6.86 18.02 4.52 7.55-4.58 13.08-13.1 21.06-17.91 12.75-8.75 17.15-13.18 30.5-21.47 8.53-9.78 18.48-6.06 30.18-7.82z"/><path id="aE" d="m336.95 513.18c9.9 2.46 17.07-2.65 24.63 6.28-7.95 3.91 9.34 3.32 1.98.88-2.77-3.97 4.03-.55 5.67-.56-1.09 1.09-1.63 1.83-1.89 3.36-2.74.39-16.03 2.54-6.24 3.1 1.77 2.37-18.24 1.09-10.65 4.67-4.43 2.23-10.82 2.35-15.83 2.93.97-4.75-3.44-.1-5.43-3.22 2.32-.94 4.68-3.15.2-2.2-5.36 1.31.8-2.79-1.75-5.18 7.72-1.65 1.01-5.52-.29-9.4 3.37.26 6.15-1.54 9.6-.66z"/><path id="aF" d="m520.84 519.13c.37.35 5.81 1.5 3.18 1.66-8 1.73 5.28 1.06 7.22 1.5-9.67 1.08-19.54 1.26-29.26 2.67-6.7.96-14.87 5.37-21.01 1.09-6.48 6.75-20 2.73-28.92 4.17-16.79 2.38-33.55 3.93-50.37 5.86-10.23 1.49-20.52 1.65-30.62 3.71-3.23.03-3.97-4.05-.5-4.23 6.79-.84 13.56-1.1 20.28-2.61 29.12-1.38 57.75-7.68 86.78-9.39 14.55-.39 28.75-3.92 43.22-4.43z"/><path id="aG" d="m906.37 522.43c8.53-1.97 16.64 3.43 25.63 1.59 12.17.61 23.52 8.72 26.06 20.95-1.52 5.51-10.66 8.01-15.82 8.04 1.49-3.76 2.07-4.61 6.03-5.85 1.38-5.65-8.7-14.66-13.85-16.62-13.01-5.88-29.27-5.54-43.05-3.18-6.68 1.64-14.68 7.75-12.31 15.62 1.76 11.34 15.39 18.14 25.17 21.38 13.05 3.48 26.29 7.32 39.56 3.05 3.02 2.19 12.7 2.95 12.97 5.29-18.69 3.45-41.13 4.47-59.77.3-11.02-4.24-25-8.6-29.15-20.94-5.94-5.02-2.61-12.81 1.19-18.05 10.26-8.53 26.29-7.33 37.34-11.58z"/><path id="aH" d="m377.44 524.91c.47 3.73-.78 3.45-3.65 4.72.4-2.35 1.95-3.3 3.65-4.72z"/><path id="aI" d="m796.27 545.82c4.08 12.13 11.48 24.63 18.67 35.23 11.64 11.73 24.71 18.31 38.24 26.95h-16.9c-12.51-6.94-24.33-14.65-34.75-24.53-9.99-10.41-15.48-22.91-20.91-36.04-12.29 7.48-22.46 17.3-35.8 23.42-16.89 9.29-24.94 24.6-39.48 37.15h-18.81c12.38-9.97 23.03-22.25 35.81-31.64 10.33-9.27 24.43-13.33 34.53-22.46 9.85-7.83 18.84-14.37 28.42-22.66 9.66-4.46 9.13 8.9 10.98 14.58z"/><path id="aJ" d="m580.01 531.09c17 1.52 31.2 11.23 42.97 22.94 6.43 6.65 17.27 15.97 15.34 26.14-.82 5.73 2.27 9.89.66 15.85.71 4.32-5.37 6.76-3.43 10.39 3.36.97 7.14.55 10.62.85l-.79.74h-23.74c6.58-5.48 3.26-13.74 4.78-20.69-1.59-2.28-5.33-1.09-.48-3.17-4.22-7.3-3.2-3.34-9.84-6.64 8-2.26-9.65-5.6-3.92-10-10.45-11.41-13.26-14.28-27.34-22.37-12.72-7.59-24.71-5.96-38.85-7.54-15.05 4.31-29.42.23-43.84 3.63l-.15-2.01c10.63-1.48 18.81-5.43 29.98-5.17 16-.32 32.03-3.72 48.03-2.95z"/><path id="aK" d="m366.43 535.92c-.62 1.62-.85 3.12-.97 4.85-7.8.91-17.81-.41-24.49 4.16-2.16.37-6.88 2.14-5.53-1.8-17.15 4.81-41.54 2.84-59.48 6.87-2.75.36-2.2-1.33-3.6-2.88-.54 2.97-4.86 4.79-2.04.23 6.14-4.42 14.17 2.44 21.29-2.71 10.23-1.1 19.94-.38 29.54-5.34 15.66 1.53 29.79-2.5 45.28-3.38z"/><path id="aL" d="m545.99 537.59c14.14 1.58 26.13-.05 38.85 7.54 14.08 8.09 16.89 10.96 27.34 22.37-5.73 4.4 11.92 7.74 3.92 10 6.64 3.3 5.62-.66 9.84 6.64-4.85 2.08-1.11.89.48 3.17-1.52 6.95 1.8 15.21-4.78 20.69h-6.17c1.26-8.66 2.54-13.99-4.53-20.94-4.7-3.27-5.15-12.47-11.78-11.57-2.39.34-8.55-3.39-8.64.65 1.52 6.14 7.94 2.27 7.34 8.37 6.86 1.41.43 13.18 8.49 13.02 5.43.48 1.79 4.06-2.07 2.67 4.63 5.47-.33 2.91.17 7.8h-22.31c2.07-3.96-2.28-4.03-4.71-2.58-5.12 3.26-8.27-.77-14.1.18-5.29-.48.66-7.32 1.95-9.25 3.96.84 7.14 3.28 11.56 2.57.84-3.04-4.73-1.04-6.27-3.49-5.62-5.67-14.38 3.95-19.37-3.31 4.49-.68 14.83 2.78 14.9-5.28 4.84-1.18 9.75-1.57 14.69-2.07-1.07-5.32-6.11-6.18-7.46-10.9-7.21-1.43-16.41-9.12-23.76-11.27-3.06 1.65-19.74 6.96-10.78-1.67-4.35-.1-8.5 1.2-12.85.99 1.32-2.76 16.53-1.49 8.11-4.69 2.66.74 12.93-4.16 7.99 1.63 11.07-8.32 17.16 2.74 28.99-.8 4.67-.15 4.24 1.34 1.29 3.84 9.77.68 11.27 10.62 20.36 4.63-1.04-4.79-8.16-5.7-11.86-8.27-13-7.31-27.31-8.91-41.96-9.74-6.05.29-11.69.13-17.1 3.31-3.53.8-7 1.83-10.54 2.58-1.72-.61-3.43-1.25-5.12-1.96 7.39-.65 7.74-5.51 11.69-10.43-6.41-1.78-4.35 4.61-10.49 3.01-2.35.5-16.24 1.63-10.1-2.91 1.66-.27 3.3-.58 4.95-.9 14.42-3.4 28.79.68 43.84-3.63z"/><path id="aM" d="m502 539.21.15 2.01c-1.65.32-3.29.63-4.95.9-26.28 3.72-51.12 10.83-75.32 21.79-5.18 2.14-10.74 4.94-14.69 9 4.12 3.88 14.23.27 18.6-2.21 9.28-3.16 18.76-6.23 28.25-8.62 1.42.17 6.96-1.17 5.75 1.57-8.87-.15-9.6 7.34-18.44 9.93.88 5.08.79 5.53 4.18 1.34-.6 7.31 2.83-.73 6.26-.26 5.85-5.52 15.9-7.05 23.26-12.56 12.04-4.46 23.22-7.82 36.17-7.69 3.54-.75 7.01-1.78 10.54-2.58 3.05.87 6.15 1.23 9.3 1.56-14.21 6.76-29.39 3.72-43.45 13.21-13.07 6.11-21.22 17.73-25.87 31-3.59 8.95 9.9 3.96 4.13 10.4h-170.4c11.45-4.8 25.48-11.83 36.94-17.3 3.77-2.54 9.89-1.37 10.82-5.53 14.58-5.94 27.91-12.06 42.4-17.57 5.07-2.18 4.4-3.06 2.49-7.6 7.36 6.95 16.66-2.91 24.11-6.01 15.89-10.21 31.96-7.54 49.58-11.28 13.63-2.81 26.01-6.33 40.19-3.5z"/><path id="aN" d="m517.79 542.02c-3.95 4.92-4.3 9.78-11.69 10.43 1.69.71 3.4 1.35 5.12 1.96-12.95-.13-24.13 3.23-36.17 7.69-7.36 5.51-17.41 7.04-23.26 12.56-3.43-.47-6.86 7.57-6.26.26-3.39 4.19-3.3 3.74-4.18-1.34 8.84-2.59 9.57-10.08 18.44-9.93 1.21-2.74-4.33-1.4-5.75-1.57-9.49 2.39-18.97 5.46-28.25 8.62-4.37 2.48-14.48 6.09-18.6 2.21 3.95-4.06 9.51-6.86 14.69-9 24.2-10.96 49.04-18.07 75.32-21.79-6.14 4.54 7.75 3.41 10.1 2.91 6.14 1.6 4.08-4.79 10.49-3.01z"/><path id="aO" d="m370.03 545.58c-5.64-.98-2.29 2.87.95 2.49 10.27-1.27 20.57-3.39 30.97-3.95-.15 2.93 5.2 8.49 7.19 3.95 4.85-.81-2.99 4.57-2.16 6.75 1.97-.79 3.08-1.66 5.25-.83-7.45 3.1-16.75 12.96-24.11 6.01 1.91 4.54 2.58 5.42-2.49 7.6-14.49 5.51-27.82 11.63-42.4 17.57-.93 4.16-7.05 2.99-10.82 5.53-11.46 5.47-25.49 12.5-36.94 17.3h-11.07c9.95-7.16 21.55-10.81 32.04-16.15-6.49-2.94 7.79-1.71 10.21-5.27 6.73-4.52-6.68-2.7-.64-8.42 3.57-.03 14.04-4.41 11.33 2.69 6.76-2.58 17.84-7.53 24.97-10.54 1.89-4.89 12.39-4.61 17.44-8.41 3.74-.99-4.46-1.03-.5-1.82 7.27-1.18 19.7-6.99 24.63-10.91-16.06 2.74-24.09 0-37.63 4.68 1.34.43 11.22-.37 5.94 1.44-7.8 6.6-15.51 3.5-24.32 7.62-7.67 3.17-17.52 8.08-21.86 15.25-3.6-.3-4.24.63-6.35-2.01-13.26 7.57-26.42 14.38-38.36 24.17-4.59 4.5-10.87 3.99-15.71 7.68h-.48c-2.43-3.45-5.78.7-7.61-6.45-1.43-11.5-7.71-23.02-15.94-31.11-7.76-7.83-19.82.07-26.58-4.02 4.75-1.21 8.86-1.8 13.67-.43-3.88-3.87 4.06-.32 5.9-2.51 20.64-3.13 39.66-3.39 60.4-6.71 15.1-2.5 29.15-3.09 43.08-9.81 4.67 1.06 17.56 6.28 17.86-2.3 4.1-2.16 10.74-2.92 14.14.92z"/><path id="aP" d="m780.62 547.43c5.43 13.13 10.92 25.63 20.91 36.04 10.42 9.88 22.24 17.59 34.75 24.53h-26.79c-10.76-8.4-17.32-19.51-24.65-30.79-1.45-3.43-.24-6.99-2.73-10.26-2.93-3.77 2.26-8.06-3.22-9.89-5.13.6-11.85 1.79-13.05 7.81-1.98 6.38-6.73 9.41-11.49 13.53 3.07 10.99-13.22 20.9-18.67 29.6h-30.34c14.54-12.55 22.59-27.86 39.48-37.15 13.34-6.12 23.51-15.94 35.8-23.42z"/><path id="aQ" d="m538.86 548.52c14.65.83 28.96 2.43 41.96 9.74 3.7 2.57 10.82 3.48 11.86 8.27-9.09 5.99-10.59-3.95-20.36-4.63 2.95-2.5 3.38-3.99-1.29-3.84-11.83 3.54-17.92-7.52-28.99.8 4.94-5.79-5.33-.89-7.99-1.63 8.42 3.2-6.79 1.93-8.11 4.69 4.35.21 8.5-1.09 12.85-.99-8.96 8.63 7.72 3.32 10.78 1.67 7.35 2.15 16.55 9.84 23.76 11.27 1.35 4.72 6.39 5.58 7.46 10.9-4.94.5-9.85.89-14.69 2.07l-.82-.06c-3.25-4.21-8.66.68-7.85-5.03-.1-3.75-10.02.26-11.39-3.49 6.06-1.53 11.94-1.47 17.56-4.74 3.11-.89-.7-3.37-2.25-2.17-9.68 4.8-17.74.81-27.33 2.76 7.19-3.33-4.37-4 1.65-7.98-12.24-4.3-25.81-.17-36.81 5.72-3.25 3.15-5.87-3.06-8.6.4-5.61 9.21-11.72 13.91-14.55 24.93.47 4.66-.08 6.71-2.19 10.82h-7.65c5.77-6.44-7.72-1.45-4.13-10.4 4.65-13.27 12.8-24.89 25.87-31 14.06-9.49 29.24-6.45 43.45-13.21-3.15-.33-6.25-.69-9.3-1.56 5.41-3.18 11.05-3.02 17.1-3.31z"/><path id="aR" d="m403.88 549.17c-4.93 3.92-17.36 9.73-24.63 10.91-3.96.79 4.24.83.5 1.82-5.05 3.8-15.55 3.52-17.44 8.41-7.13 3.01-18.21 7.96-24.97 10.54 2.71-7.1-7.76-2.72-11.33-2.69 4.34-7.17 14.19-12.08 21.86-15.25 8.81-4.12 16.52-1.02 24.32-7.62 5.28-1.81-4.6-1.01-5.94-1.44 13.54-4.68 21.57-1.94 37.63-4.68z"/><path id="aS" d="m778.89 557.06c5.48 1.83.29 6.12 3.22 9.89 2.49 3.27 1.28 6.83 2.73 10.26 7.33 11.28 13.89 22.39 24.65 30.79h-73.81c5.45-8.7 21.74-18.61 18.67-29.6 4.76-4.12 9.51-7.15 11.49-13.53 1.2-6.02 7.92-7.21 13.05-7.81z"/><path id="aT" d="m535.67 566.13c-6.02 3.98 5.54 4.65-1.65 7.98-8.12 9.32-20.76 1.69-30.78 11.63 3.29 1.13 9.01 6.47 2.35 6.72-5.17-.52 5.04 3.59.88 3.94-5.22 1.3 2.53 2.67 3.26 5.06-2.63 1.66-3.95 2.04-4.46 5.33-3.22-2.46-2.36-1.33-4.75 1.21h-27c2.11-4.11 2.66-6.16 2.19-10.82 2.83-11.02 8.94-15.72 14.55-24.93 2.73-3.46 5.35 2.75 8.6-.4 11-5.89 24.57-10.02 36.81-5.72z"/><path id="aU" d="m561.35 571.35c1.55-1.2 5.36 1.28 2.25 2.17-5.62 3.27-11.5 3.21-17.56 4.74 1.37 3.75 11.29-.26 11.39 3.49-.81 5.71 4.6.82 7.85 5.03-5.66 1.12-11.56 1.37-17.27.56.02 3.06 1.85 4.8 3.24 7.27-3.04 2-3.18 5.64-5.85 7.63 1.84-3.65 2.86-17.11-4.47-13.4-2.89.05-1.07 2.4-1.09 4.21-4.04-2.54-1.38-4.94-1.38-8.79-9.95-6.66-18.21-.33-25.09 7.09-1.47 6.17.12 11.56 3.65 16.65h-16.5c2.39-2.54 1.53-3.67 4.75-1.21.51-3.29 1.83-3.67 4.46-5.33-.73-2.39-8.48-3.76-3.26-5.06 4.16-.35-6.05-4.46-.88-3.94 6.66-.25.94-5.59-2.35-6.72 10.02-9.94 22.66-2.31 30.78-11.63 9.59-1.95 17.65 2.04 27.33-2.76z"/><path id="aV" d="m599.16 575.49c6.63-.9 7.08 8.3 11.78 11.57 7.07 6.95 5.79 12.28 4.53 20.94h-11.02c-.5-4.89 4.46-2.33-.17-7.8 3.86 1.39 7.5-2.19 2.07-2.67-8.06.16-1.63-11.61-8.49-13.02.6-6.1-5.82-2.23-7.34-8.37.09-4.04 6.25-.31 8.64-.65z"/><path id="aW" d="m319.66 576.15c2.11 2.64 2.75 1.71 6.35 2.01-6.04 5.72 7.37 3.9.64 8.42-2.42 3.56-16.7 2.33-10.21 5.27-10.49 5.34-22.09 8.99-32.04 16.15h-18.81c4.84-3.69 11.12-3.18 15.71-7.68 11.94-9.79 25.1-16.6 38.36-24.17z"/><path id="aX" d="m538.46 584.26c0 3.85-2.66 6.25 1.38 8.79 4.34 2.83-1.62 4.61.55 8.56 1.31 2.14 2.82 4.14 3.96 6.39h-27.33c-3.53-5.09-5.12-10.48-3.65-16.65 6.88-7.42 15.14-13.75 25.09-7.09z"/><path id="aY" d="m548.01 587.34c5.71.81 11.61.56 17.27-.56l.82.06c-.07 8.06-10.41 4.6-14.9 5.28 4.99 7.26 13.75-2.36 19.37 3.31 1.54 2.45 7.11.45 6.27 3.49-4.42.71-7.6-1.73-11.56-2.57-1.29 1.93-7.24 8.77-1.95 9.25 5.83-.95 8.98 3.08 14.1-.18 2.43-1.45 6.78-1.38 4.71 2.58h-37.79c-1.14-2.25-2.65-4.25-3.96-6.39-2.17-3.95 3.79-5.73-.55-8.56.02-1.81-1.8-4.16 1.09-4.21 7.33-3.71 6.31 9.75 4.47 13.4 2.67-1.99 2.81-5.63 5.85-7.63-1.39-2.47-3.22-4.21-3.24-7.27z"/></defs><g stroke-width="10pt"><use stroke="#181a1f" xlink:href="#a"/><use stroke="#2f1c1f" xlink:href="#b"/><use stroke="#4b3029" xlink:href="#c"/><use stroke="#704a37" xlink:href="#d"/><use stroke="#8f694d" xlink:href="#e"/><use stroke="#6f4331" xlink:href="#f"/><use stroke="#4d2621" xlink:href="#g"/><use stroke="#b4977b" xlink:href="#h"/><use stroke="#b0afaf" xlink:href="#i"/><use stroke="#b89575" xlink:href="#j"/><use stroke="#412320" xlink:href="#k"/><use stroke="#713021" xlink:href="#l"/><use stroke="#4e3128" xlink:href="#m"/><use stroke="#3d1818" xlink:href="#n"/><use stroke="#924127" xlink:href="#o"/><use stroke="#81321c" xlink:href="#p"/><use stroke="#84321a" xlink:href="#q"/><use stroke="#84331d" xlink:href="#r"/><use stroke="#411e1e" xlink:href="#s"/><use stroke="#3e1c1a" xlink:href="#t"/><use stroke="#aa4b2d" xlink:href="#u"/><use stroke="#7a3423" xlink:href="#v"/><use stroke="#56302a" xlink:href="#w"/><use stroke="#773122" xlink:href="#x"/><use stroke="#813320" xlink:href="#y"/><use stroke="#b44725" xlink:href="#z"/><use stroke="#231b1f" xlink:href="#A"/><use stroke="#452221" xlink:href="#B"/><use stroke="#a04427" xlink:href="#C"/><use stroke="#3d1a1a" xlink:href="#D"/><use stroke="#a03e22" xlink:href="#E"/><use stroke="#9f482c" xlink:href="#F"/><use stroke="#9e4c31" xlink:href="#G"/><use stroke="#762e1f" xlink:href="#H"/><use stroke="#491d1b" xlink:href="#I"/><use stroke="#471d19" xlink:href="#J"/><use stroke="#3a2223" xlink:href="#K"/><use stroke="#a14428" xlink:href="#L"/><use stroke="#231e23" xlink:href="#M"/><use stroke="#201a1e" xlink:href="#N"/><use stroke="#702d20" xlink:href="#O"/><use stroke="#933f26" xlink:href="#P"/><use stroke="#401d1e" xlink:href="#Q"/><use stroke="#4d1e17" xlink:href="#R"/><use stroke="#863924" xlink:href="#S"/><use stroke="#52261a" xlink:href="#T"/><use stroke="#9f432a" xlink:href="#U"/><use stroke="#762b1a" xlink:href="#V"/><use stroke="#5c332c" xlink:href="#W"/><use stroke="#4b1e1f" xlink:href="#X"/><use stroke="#3c1a18" xlink:href="#Y"/><use stroke="#411d1c" xlink:href="#Z"/><use stroke="#4a2d29" xlink:href="#aa"/><use stroke="#3d292a" xlink:href="#ab"/><use stroke="#5f3730" xlink:href="#ac"/><use stroke="#5a231f" xlink:href="#ad"/><use stroke="#784634" xlink:href="#ae"/><use stroke="#2c191d" xlink:href="#af"/><use stroke="#36171b" xlink:href="#ag"/><use stroke="#9d4f34" xlink:href="#ah"/><use stroke="#905339" xlink:href="#ai"/><use stroke="#3b171b" xlink:href="#aj"/><use stroke="#3a2627" xlink:href="#ak"/><use stroke="#82422f" xlink:href="#al"/><use stroke="#714638" xlink:href="#am"/><use stroke="#76493b" xlink:href="#an"/><use stroke="#90583c" xlink:href="#ao"/><use stroke="#89523a" xlink:href="#ap"/><use stroke="#66231e" xlink:href="#aq"/><use stroke="#854b3d" xlink:href="#ar"/><use stroke="#451c1e" xlink:href="#as"/><use stroke="#581f1d" xlink:href="#at"/><use stroke="#503b37" xlink:href="#au"/><use stroke="#3a2b2a" xlink:href="#av"/><use stroke="#493838" xlink:href="#aw"/><use stroke="#4f1c21" xlink:href="#ax"/><use stroke="#754638" xlink:href="#ay"/><use stroke="#4a312d" xlink:href="#az"/><use stroke="#496669" xlink:href="#aA"/><use stroke="#684235" xlink:href="#aB"/><use stroke="#34181c" xlink:href="#aC"/><use stroke="#3e191c" xlink:href="#aD"/><use stroke="#366063" xlink:href="#aE"/><use stroke="#674038" xlink:href="#aF"/><use stroke="#3b2a29" xlink:href="#aG"/><use stroke="#361d20" xlink:href="#aH"/><use stroke="#412b29" xlink:href="#aI"/><use stroke="#54231e" xlink:href="#aJ"/><use stroke="#473a3c" xlink:href="#aK"/><use stroke="#885840" xlink:href="#aL"/><use stroke="#342224" xlink:href="#aM"/><use stroke="#604136" xlink:href="#aN"/><use stroke="#3f3738" xlink:href="#aO"/><use stroke="#27191d" xlink:href="#aP"/><use stroke="#633428" xlink:href="#aQ"/><use stroke="#271d21" xlink:href="#aR"/><use stroke="#43302c" xlink:href="#aS"/><use stroke="#452221" xlink:href="#aT"/><use stroke="#7c4e3a" xlink:href="#aU"/><use stroke="#672e1f" xlink:href="#aV"/><use stroke="#261f23" xlink:href="#aW"/><use stroke="#5d2a20" xlink:href="#aX"/><use stroke="#a77150" xlink:href="#aY"/></g><use fill="#181a1f" xlink:href="#a"/><use fill="#2f1c1f" xlink:href="#b"/><use fill="#4b3029" xlink:href="#c"/><use fill="#704a37" xlink:href="#d"/><use fill="#8f694d" xlink:href="#e"/><use fill="#6f4331" xlink:href="#f"/><use fill="#4d2621" xlink:href="#g"/><use fill="#b4977b" xlink:href="#h"/><use fill="#b0afaf" xlink:href="#i"/><use fill="#b89575" xlink:href="#j"/><use fill="#412320" xlink:href="#k"/><use fill="#713021" xlink:href="#l"/><use fill="#4e3128" xlink:href="#m"/><use fill="#3d1818" xlink:href="#n"/><use fill="#924127" xlink:href="#o"/><use fill="#81321c" xlink:href="#p"/><use fill="#84321a" xlink:href="#q"/><use fill="#84331d" xlink:href="#r"/><use fill="#411e1e" xlink:href="#s"/><use fill="#3e1c1a" xlink:href="#t"/><use fill="#aa4b2d" xlink:href="#u"/><use fill="#7a3423" xlink:href="#v"/><use fill="#56302a" xlink:href="#w"/><use fill="#773122" xlink:href="#x"/><use fill="#813320" xlink:href="#y"/><use fill="#b44725" xlink:href="#z"/><use fill="#231b1f" xlink:href="#A"/><use fill="#452221" xlink:href="#B"/><use fill="#a04427" xlink:href="#C"/><use fill="#3d1a1a" xlink:href="#D"/><use fill="#a03e22" xlink:href="#E"/><use fill="#9f482c" xlink:href="#F"/><use fill="#9e4c31" xlink:href="#G"/><use fill="#762e1f" xlink:href="#H"/><use fill="#491d1b" xlink:href="#I"/><use fill="#471d19" xlink:href="#J"/><use fill="#3a2223" xlink:href="#K"/><use fill="#a14428" xlink:href="#L"/><use fill="#231e23" xlink:href="#M"/><use fill="#201a1e" xlink:href="#N"/><use fill="#702d20" xlink:href="#O"/><use fill="#933f26" xlink:href="#P"/><use fill="#401d1e" xlink:href="#Q"/><use fill="#4d1e17" xlink:href="#R"/><use fill="#863924" xlink:href="#S"/><use fill="#52261a" xlink:href="#T"/><use fill="#9f432a" xlink:href="#U"/><use fill="#762b1a" xlink:href="#V"/><use fill="#5c332c" xlink:href="#W"/><use fill="#4b1e1f" xlink:href="#X"/><use fill="#3c1a18" xlink:href="#Y"/><use fill="#411d1c" xlink:href="#Z"/><use fill="#4a2d29" xlink:href="#aa"/><use fill="#3d292a" xlink:href="#ab"/><use fill="#5f3730" xlink:href="#ac"/><use fill="#5a231f" xlink:href="#ad"/><use fill="#784634" xlink:href="#ae"/><use fill="#2c191d" xlink:href="#af"/><use fill="#36171b" xlink:href="#ag"/><use fill="#9d4f34" xlink:href="#ah"/><use fill="#905339" xlink:href="#ai"/><use fill="#3b171b" xlink:href="#aj"/><use fill="#3a2627" xlink:href="#ak"/><use fill="#82422f" xlink:href="#al"/><use fill="#714638" xlink:href="#am"/><use fill="#76493b" xlink:href="#an"/><use fill="#90583c" xlink:href="#ao"/><use fill="#89523a" xlink:href="#ap"/><use fill="#66231e" xlink:href="#aq"/><use fill="#854b3d" xlink:href="#ar"/><use fill="#451c1e" xlink:href="#as"/><use fill="#581f1d" xlink:href="#at"/><use fill="#503b37" xlink:href="#au"/><use fill="#3a2b2a" xlink:href="#av"/><use fill="#493838" xlink:href="#aw"/><use fill="#4f1c21" xlink:href="#ax"/><use fill="#754638" xlink:href="#ay"/><use fill="#4a312d" xlink:href="#az"/><use fill="#496669" xlink:href="#aA"/><use fill="#684235" xlink:href="#aB"/><use fill="#34181c" xlink:href="#aC"/><use fill="#3e191c" xlink:href="#aD"/><use fill="#366063" xlink:href="#aE"/><use fill="#674038" xlink:href="#aF"/><use fill="#3b2a29" xlink:href="#aG"/><use fill="#361d20" xlink:href="#aH"/><use fill="#412b29" xlink:href="#aI"/><use fill="#54231e" xlink:href="#aJ"/><use fill="#473a3c" xlink:href="#aK"/><use fill="#885840" xlink:href="#aL"/><use fill="#342224" xlink:href="#aM"/><use fill="#604136" xlink:href="#aN"/><use fill="#3f3738" xlink:href="#aO"/><use fill="#27191d" xlink:href="#aP"/><use fill="#633428" xlink:href="#aQ"/><use fill="#271d21" xlink:href="#aR"/><use fill="#43302c" xlink:href="#aS"/><use fill="#452221" xlink:href="#aT"/><use fill="#7c4e3a" xlink:href="#aU"/><use fill="#672e1f" xlink:href="#aV"/><use fill="#261f23" xlink:href="#aW"/><use fill="#5d2a20" xlink:href="#aX"/><use fill="#a77150" xlink:href="#aY"/></svg>